<svg width="23" height="23" viewBox="0 0 23 23" fill="none" xmlns="http://www.w3.org/2000/svg">
<path d="M5.75016 0C5.29648 0 4.92871 0.367766 4.92871 0.821444V2.46428H6.57155V0.821444C6.57155 0.367766 6.20379 0 5.75016 0Z" fill="#383838"/>
<path d="M17.2502 0C16.7965 0 16.4287 0.367766 16.4287 0.821444V2.46428H18.0716V0.821444C18.0716 0.367766 17.7038 0 17.2502 0Z" fill="#383838"/>
<path d="M20.5357 2.46387H18.0714V5.7496C18.0714 6.20327 17.7037 6.57104 17.25 6.57104C16.7963 6.57104 16.4285 6.20327 16.4285 5.7496V2.46387H6.57141V5.7496C6.57141 6.20327 6.20364 6.57104 5.74996 6.57104C5.29629 6.57104 4.92852 6.20327 4.92852 5.7496V2.46387H2.46428C1.1033 2.46387 0 3.56716 0 4.92815V20.5353C0 21.8963 1.1033 22.9996 2.46428 22.9996H20.5357C21.8967 22.9996 23 21.8963 23 20.5353V4.92815C23 3.56716 21.8967 2.46387 20.5357 2.46387ZM21.3571 20.5353C21.3571 20.989 20.9893 21.3567 20.5357 21.3567H2.46428C2.01061 21.3567 1.64284 20.989 1.64284 20.5353V9.85672H21.3571V20.5353Z" fill="#383838"/>
<path d="M6.57122 11.5H4.92838C4.4747 11.5 4.10693 11.8678 4.10693 12.3214C4.10693 12.7751 4.4747 13.1429 4.92838 13.1429H6.57122C7.0249 13.1429 7.39266 12.7751 7.39266 12.3214C7.39266 11.8678 7.0249 11.5 6.57122 11.5Z" fill="#383838"/>
<path d="M12.3212 11.5H10.6784C10.2247 11.5 9.85693 11.8678 9.85693 12.3214C9.85693 12.7751 10.2247 13.1429 10.6784 13.1429H12.3212C12.7749 13.1429 13.1427 12.7751 13.1427 12.3214C13.1427 11.8678 12.7749 11.5 12.3212 11.5Z" fill="#383838"/>
<path d="M18.0712 11.5H16.4284C15.9747 11.5 15.6069 11.8678 15.6069 12.3214C15.6069 12.7751 15.9747 13.1429 16.4284 13.1429H18.0712C18.5249 13.1429 18.8927 12.7751 18.8927 12.3214C18.8927 11.8678 18.5248 11.5 18.0712 11.5Z" fill="#383838"/>
<path d="M6.57122 14.7861H4.92838C4.4747 14.7861 4.10693 15.1539 4.10693 15.6076C4.10693 16.0613 4.4747 16.429 4.92838 16.429H6.57122C7.0249 16.429 7.39266 16.0613 7.39266 15.6076C7.39266 15.1539 7.0249 14.7861 6.57122 14.7861Z" fill="#383838"/>
<path d="M12.3212 14.7861H10.6784C10.2247 14.7861 9.85693 15.1539 9.85693 15.6076C9.85693 16.0613 10.2247 16.429 10.6784 16.429H12.3212C12.7749 16.429 13.1427 16.0613 13.1427 15.6076C13.1427 15.1539 12.7749 14.7861 12.3212 14.7861Z" fill="#383838"/>
<path d="M18.0712 14.7861H16.4284C15.9747 14.7861 15.6069 15.1539 15.6069 15.6076C15.6069 16.0613 15.9747 16.429 16.4284 16.429H18.0712C18.5249 16.429 18.8927 16.0613 18.8927 15.6076C18.8926 15.1539 18.5248 14.7861 18.0712 14.7861Z" fill="#383838"/>
<path d="M6.57122 18.0713H4.92838C4.4747 18.0713 4.10693 18.4391 4.10693 18.8927C4.10693 19.3464 4.4747 19.7141 4.92838 19.7141H6.57122C7.0249 19.7141 7.39266 19.3464 7.39266 18.8927C7.39266 18.439 7.0249 18.0713 6.57122 18.0713Z" fill="#383838"/>
<path d="M12.3212 18.0713H10.6784C10.2247 18.0713 9.85693 18.4391 9.85693 18.8927C9.85693 19.3464 10.2247 19.7142 10.6784 19.7142H12.3212C12.7749 19.7142 13.1427 19.3464 13.1427 18.8927C13.1427 18.4391 12.7749 18.0713 12.3212 18.0713Z" fill="#383838"/>
<path d="M18.0712 18.0713H16.4284C15.9747 18.0713 15.6069 18.4391 15.6069 18.8927C15.6069 19.3464 15.9747 19.7142 16.4284 19.7142H18.0712C18.5249 19.7142 18.8927 19.3464 18.8927 18.8927C18.8927 18.4391 18.5248 18.0713 18.0712 18.0713Z" fill="#383838"/>
</svg>
