<svg width="15" height="15" viewBox="0 0 15 15" fill="none" xmlns="http://www.w3.org/2000/svg">
<circle cx="7.5" cy="7.5" r="7.5" fill="#FD7722"/>
<path d="M10.6469 5.36213L10.4034 5.11868C10.3269 5.04212 10.2249 5 10.116 5C10.0072 5 9.90509 5.04212 9.8286 5.11868L6.40775 8.53946L4.27045 6.40211C4.19395 6.32567 4.09189 6.28349 3.98301 6.28349C3.87418 6.28349 3.77218 6.32567 3.69562 6.40211L3.45211 6.6455C3.37555 6.72218 3.3335 6.8243 3.3335 6.93306C3.3335 7.04189 3.37555 7.14394 3.45211 7.2205L5.86525 9.63352C5.86845 9.63805 5.87184 9.64228 5.87576 9.64615L6.11928 9.88562C6.19578 9.96187 6.29783 10 6.40757 10H6.40883C6.51778 10 6.61984 9.96187 6.69622 9.88562L6.93979 9.64404C6.94372 9.64017 6.94704 9.63697 6.94904 9.6337L10.6468 5.93629C10.8054 5.77803 10.8054 5.52056 10.6469 5.36213Z" fill="white"/>
</svg>
