<svg width="23" height="23" viewBox="0 0 23 23" fill="none" xmlns="http://www.w3.org/2000/svg">
<path d="M11.4999 1C5.71026 1 1 5.71016 1 11.4997C1 17.2897 5.71026 22 11.4999 22C17.2895 22 21.9996 17.2896 21.9996 11.4997C21.9996 5.71016 17.2895 1 11.4999 1ZM11.4999 20.4949C6.54021 20.4949 2.50516 16.4596 2.50516 11.4997C2.50516 6.5401 6.54021 2.50516 11.4999 2.50516C16.4595 2.50516 20.4945 6.5401 20.4945 11.4997C20.4945 16.4596 16.4595 20.4949 11.4999 20.4949Z" fill="#383838" stroke="#383838" stroke-width="0.5"/>
<path d="M16.899 11.326H11.9646V5.93227C11.9646 5.51664 11.6278 5.17969 11.2121 5.17969C10.7964 5.17969 10.4595 5.51664 10.4595 5.93227V12.0786C10.4595 12.4942 10.7964 12.8311 11.2121 12.8311H16.899C17.3147 12.8311 17.6515 12.4942 17.6515 12.0786C17.6515 11.6629 17.3146 11.326 16.899 11.326Z" fill="#383838" stroke="#383838" stroke-width="0.5"/>
</svg>
