<svg width="19" height="16" viewBox="0 0 19 16" fill="none" xmlns="http://www.w3.org/2000/svg">
<path d="M4.40349 5.71484H1.01609C0.733908 5.71484 0.493919 5.81898 0.296307 6.02734C0.0987319 6.23558 0 6.48854 0 6.78625V8.92935C0 9.22683 0.0987319 9.47967 0.296307 9.68795C0.493919 9.89626 0.733908 10.0004 1.01609 10.0004H4.40349C4.68567 10.0004 4.92566 9.89626 5.12327 9.68795C5.32088 9.47967 5.41957 9.22683 5.41957 8.92935V6.78625C5.41957 6.48854 5.32088 6.23558 5.12327 6.02734C4.92566 5.8191 4.68567 5.71484 4.40349 5.71484Z" fill="#424242"/>
<path d="M4.40349 0H1.01609C0.733908 0 0.493919 0.104099 0.296307 0.312455C0.0987319 0.52081 0 0.773847 0 1.07137V3.21438C0 3.5121 0.0987319 3.76521 0.296307 3.97341C0.493919 4.18165 0.733908 4.2859 1.01609 4.2859H4.40349C4.68567 4.2859 4.92566 4.18165 5.12327 3.97341C5.32088 3.76517 5.41957 3.51221 5.41957 3.2145V1.07152C5.41957 0.774003 5.32088 0.520966 5.12327 0.312494C4.92566 0.104217 4.68567 0 4.40349 0Z" fill="#424242"/>
<path d="M4.40349 11.4287H1.01609C0.733908 11.4287 0.493919 11.5328 0.296307 11.7412C0.0987319 11.9496 0 12.2026 0 12.5001V14.6433C0 14.9408 0.0987319 15.194 0.296307 15.4021C0.493919 15.6105 0.733908 15.7144 1.01609 15.7144H4.40349C4.68567 15.7144 4.92566 15.6103 5.12327 15.4021C5.32088 15.194 5.41957 14.9408 5.41957 14.6433V12.5001C5.41957 12.2026 5.32088 11.9496 5.12327 11.7413C4.92566 11.533 4.68567 11.4287 4.40349 11.4287Z" fill="#424242"/>
<path d="M17.9523 5.71484H7.7905C7.50821 5.71484 7.26833 5.81898 7.07072 6.02734C6.87311 6.23569 6.77441 6.48854 6.77441 6.78625V8.92935C6.77441 9.22683 6.87311 9.47967 7.07072 9.68795C7.26822 9.89626 7.50821 10.0004 7.7905 10.0004H17.9525C18.2347 10.0004 18.4748 9.89626 18.6722 9.68795C18.8699 9.47967 18.9686 9.22683 18.9686 8.92935V6.78625C18.9686 6.48854 18.8699 6.23558 18.6721 6.02734C18.4745 5.81898 18.2347 5.71484 17.9523 5.71484Z" fill="#424242"/>
<path d="M17.9523 11.4287H7.7905C7.50821 11.4287 7.26833 11.5328 7.07072 11.7412C6.87311 11.9496 6.77441 12.2025 6.77441 12.5V14.643C6.77441 14.9406 6.87311 15.1938 7.07072 15.4021C7.26822 15.6104 7.50821 15.7143 7.7905 15.7143H17.9525C18.2347 15.7143 18.4748 15.6102 18.6722 15.4021C18.8699 15.1937 18.9686 14.9406 18.9686 14.643V12.5C18.9686 12.2025 18.8699 11.9494 18.6721 11.7412C18.4745 11.533 18.2347 11.4287 17.9523 11.4287Z" fill="#424242"/>
<path d="M18.6721 0.312456C18.4745 0.104217 18.2347 0 17.9523 0H7.7905C7.50821 0 7.26833 0.1041 7.07072 0.312456C6.87311 0.520811 6.77441 0.773848 6.77441 1.07137V3.21439C6.77441 3.51211 6.87311 3.76491 7.07072 3.9733C7.26822 4.18154 7.50821 4.2858 7.7905 4.2858H17.9525C18.2347 4.2858 18.4745 4.18154 18.6722 3.9733C18.8699 3.76506 18.9686 3.51211 18.9686 3.21439V1.07137C18.9686 0.773809 18.8699 0.520811 18.6721 0.312456Z" fill="#424242"/>
</svg>
