<svg width="25" height="19" viewBox="0 0 25 19" fill="none" xmlns="http://www.w3.org/2000/svg">
<path d="M19.2083 7.73262V2.91668C19.2083 1.85962 18.3487 1 17.2916 1H2.91664C1.85958 1 1 1.85958 1 2.91668V12.5C1 13.5571 1.85958 14.4167 2.91668 14.4167H13.6627C14.2905 16.6256 16.3216 18.25 18.7292 18.25C19.6557 18.25 20.5668 18.0062 21.3651 17.5444C21.5939 17.4119 21.6725 17.119 21.5396 16.8897C21.4072 16.6604 21.1138 16.5813 20.8849 16.7152C20.2326 17.0924 19.4872 17.2917 18.7291 17.2917C16.3511 17.2917 14.4166 15.3572 14.4166 12.9792C14.4166 10.6012 16.3511 8.66668 18.7291 8.66668C21.1072 8.66668 23.0416 10.6012 23.0416 12.9792V13.4584C23.0416 13.9866 22.6116 14.4167 22.0833 14.4167C21.555 14.4167 21.125 13.9866 21.125 13.4584V11.5417C21.125 11.2768 20.9107 11.0625 20.6458 11.0625C20.5169 11.0625 20.4011 11.1147 20.3151 11.1973C19.8916 10.8199 19.3397 10.5833 18.7291 10.5833C17.4082 10.5833 16.3333 11.6582 16.3333 12.9791C16.3333 14.3001 17.4082 15.375 18.7292 15.375C19.4433 15.375 20.0782 15.0547 20.5175 14.5573C20.8646 15.0504 21.4357 15.375 22.0834 15.375C23.1404 15.375 24 14.5154 24 13.4583V12.9791C24 10.2345 21.8906 7.97583 19.2083 7.73262ZM2.91668 1.95832H17.2917C17.3116 1.95832 17.3283 1.96852 17.348 1.96973L10.4982 7.59229C10.2544 7.74578 9.90109 7.71393 9.74247 7.61663L2.86093 1.96964C2.88038 1.96847 2.89692 1.95832 2.91668 1.95832ZM18.25 7.73262C15.5677 7.97583 13.4583 10.2345 13.4583 12.9792C13.4583 13.1409 13.4682 13.3003 13.4826 13.4584H2.91668C2.3884 13.4584 1.95836 13.0283 1.95836 12.5V2.91668C1.95836 2.78097 1.98833 2.65281 2.03945 2.53574L9.17677 8.38875C9.45564 8.57077 9.77621 8.66673 10.1042 8.66673C10.4196 8.66673 10.728 8.57783 10.9994 8.40937C11.0265 8.39486 11.0523 8.37756 11.0766 8.35744L18.1689 2.53565C18.22 2.65281 18.25 2.78097 18.25 2.91673V7.73262H18.25ZM18.7292 14.4167C17.9365 14.4167 17.2917 13.7719 17.2917 12.9792C17.2917 12.1865 17.9365 11.5417 18.7292 11.5417C19.5219 11.5417 20.1667 12.1865 20.1667 12.9792C20.1667 13.7719 19.5219 14.4167 18.7292 14.4167Z" fill="white" stroke="white" stroke-width="0.4"/>
</svg>
