<svg width="22" height="19" viewBox="0 0 22 19" fill="none" xmlns="http://www.w3.org/2000/svg">
<path d="M17.1421 0H12.0754C9.63114 0 7.64209 1.98905 7.64209 4.43334C7.64209 6.66301 9.29657 8.51353 11.4421 8.82154V10.7667C11.4421 11.0227 11.5961 11.254 11.833 11.3517C12.0666 11.4492 12.3406 11.397 12.5232 11.2144L14.871 8.86667H17.1421C19.5864 8.86667 21.6177 6.87762 21.6177 4.43334C21.6177 1.98905 19.5864 0 17.1421 0ZM12.0754 5.06659C11.7256 5.06659 11.4421 4.78302 11.4421 4.43325C11.4421 4.08348 11.7256 3.79992 12.0754 3.79992C12.4252 3.79992 12.7088 4.08348 12.7088 4.43325C12.7088 4.78302 12.4252 5.06659 12.0754 5.06659ZM14.6088 5.06659C14.2589 5.06659 13.9754 4.78302 13.9754 4.43325C13.9754 4.08348 14.2589 3.79992 14.6088 3.79992C14.9585 3.79992 15.2421 4.08348 15.2421 4.43325C15.2421 4.78302 14.9585 5.06659 14.6088 5.06659ZM17.1421 5.06659C16.7922 5.06659 16.5088 4.78302 16.5088 4.43325C16.5088 4.08348 16.7922 3.79992 17.1421 3.79992C17.4919 3.79992 17.7754 4.08348 17.7754 4.43325C17.7754 4.78302 17.4919 5.06659 17.1421 5.06659Z" fill="#7D7D7D"/>
<path d="M14.2289 18.9998C15.2766 18.9998 16.1289 18.1475 16.1289 17.0998V14.5664C16.1289 14.2937 15.9545 14.0518 15.696 13.9659L11.9049 12.6992C11.7193 12.6367 11.5165 12.6652 11.3532 12.7728L9.74139 13.8471C8.03435 13.0332 6.00882 11.0076 5.19486 9.30055L6.26916 7.68876C6.37738 7.52608 6.40461 7.32261 6.34275 7.13708L5.07609 3.34599C4.99016 3.08751 4.74832 2.91309 4.47556 2.91309H1.9C0.852299 2.91309 0 3.75648 0 4.80418C0 12.1011 6.93197 18.9998 14.2289 18.9998Z" fill="#7D7D7D"/>
</svg>
