<svg width="12" height="12" viewBox="0 0 12 12" fill="none" xmlns="http://www.w3.org/2000/svg">
<g clip-path="url(#clip0)">
<path d="M11.5001 9H0.500049C0.364543 9 0.247343 9.04961 0.148395 9.14853C0.0494467 9.2474 0 9.36468 0 9.50008V10.5002C0 10.6356 0.0494467 10.7527 0.148422 10.8517C0.247452 10.9506 0.364652 11.0002 0.500076 11.0002H11.5001C11.6355 11.0002 11.7527 10.9506 11.8517 10.8517C11.9506 10.7528 12 10.6356 12 10.5002V9.50008C12 9.36468 11.9508 9.24743 11.8517 9.14853C11.7527 9.04964 11.6356 9 11.5001 9Z" fill="#333333"/>
<path d="M11.8517 1.14848C11.7527 1.0495 11.6355 1 11.5001 1H0.500049C0.364543 1 0.247343 1.0495 0.148395 1.14848C0.0494467 1.2474 0 1.3646 0 1.49997V2.50004C0 2.63546 0.0494467 2.75258 0.148422 2.85158C0.247452 2.95058 0.364652 3 0.500076 3H11.5001C11.6355 3 11.7527 2.95056 11.8517 2.85158C11.9506 2.75261 12 2.63546 12 2.50004V1.49997C12 1.3646 11.9506 1.2474 11.8517 1.14848Z" fill="#333333"/>
<path d="M11.5001 5H0.500049C0.364543 5 0.247343 5.0495 0.148395 5.14848C0.0494467 5.2474 0 5.3646 0 5.5V6.50007C0 6.63547 0.0494467 6.7528 0.148422 6.85161C0.247452 6.95051 0.364652 7.00015 0.500076 7.00015H11.5001C11.6355 7.00015 11.7527 6.95054 11.8517 6.85161C11.9506 6.75283 12 6.63549 12 6.50007V5.5C12 5.3646 11.9506 5.2474 11.8517 5.14845C11.7527 5.04947 11.6356 5 11.5001 5Z" fill="#333333"/>
</g>
<defs>
<clipPath id="clip0">
<rect width="12" height="12" fill="white"/>
</clipPath>
</defs>
</svg>
