<svg width="23" height="18" viewBox="0 0 23 18" fill="none" xmlns="http://www.w3.org/2000/svg">
<path d="M11.2438 3.6123L3.22354 10.2242C3.22354 10.2335 3.2212 10.2472 3.21651 10.266C3.21192 10.2845 3.20947 10.298 3.20947 10.3076V17.0028C3.20947 17.2445 3.29785 17.454 3.47456 17.6305C3.65123 17.807 3.86043 17.8958 4.10221 17.8958H9.45826V12.5395H13.0295V17.896H18.3855C18.6272 17.896 18.8367 17.8074 19.0131 17.6305C19.1898 17.4542 19.2785 17.2446 19.2785 17.0028V10.3076C19.2785 10.2705 19.2734 10.2424 19.2644 10.2242L11.2438 3.6123Z" fill="#7D7D7D"/>
<path d="M22.333 8.718L19.2785 6.17936V0.488312C19.2785 0.35821 19.2366 0.251216 19.1527 0.167477C19.0695 0.0838364 18.9625 0.0420159 18.8321 0.0420159H16.154C16.0238 0.0420159 15.9168 0.0838364 15.833 0.167477C15.7494 0.251216 15.7077 0.358259 15.7077 0.488312V3.20825L12.3043 0.362656C12.007 0.120869 11.6536 0 11.2444 0C10.8352 0 10.4819 0.120869 10.1843 0.362656L0.154997 8.718C0.0620251 8.79226 0.0110686 8.89222 0.00159062 9.01778C-0.00783853 9.14324 0.0246505 9.25282 0.0991554 9.34575L0.963949 10.378C1.03845 10.4616 1.13597 10.5128 1.25689 10.5315C1.36852 10.5409 1.48016 10.5082 1.59179 10.4339L11.2441 2.38528L20.8965 10.4338C20.9711 10.4987 21.0685 10.5311 21.1895 10.5311H21.2314C21.3521 10.5127 21.4494 10.4612 21.5243 10.3778L22.3892 9.3457C22.4636 9.25258 22.4962 9.14319 22.4865 9.01758C22.477 8.89237 22.4258 8.79241 22.333 8.718Z" fill="#7D7D7D"/>
</svg>
