<svg width="484" height="463" viewBox="0 0 484 463" fill="none" xmlns="http://www.w3.org/2000/svg">
<path d="M371.447 112.553C427.75 168.857 427.75 260.143 371.447 316.447C315.143 372.75 223.857 372.75 167.553 316.447C111.25 260.143 111.25 168.857 167.553 112.553C223.857 56.2496 315.143 56.2496 371.447 112.553Z" fill="white" stroke="#61C200" stroke-width="15"/>
<path d="M340.746 140.515L239.507 241.727L199.401 201.632L169.706 231.32L239.507 301.103L370.441 170.203L340.746 140.515Z" fill="#61C200"/>
<path d="M9.11812 322.236L10.0821 324.291C10.0821 324.291 10.4632 325.629 11.6363 327.774C11.9427 328.334 12.3387 328.827 12.8095 329.253C13.3849 329.769 14.1695 330.419 14.715 330.643C15.3875 330.919 15.3725 331.868 14.7374 332.025C14.0948 332.182 12.2266 331.472 10.635 329.761C9.0434 328.05 9.28999 331.719 9.35724 333.057C9.42449 334.394 9.43196 338.549 9.03593 338.892C8.45308 339.401 7.80297 338.87 7.77309 337.532C7.73572 336.18 7.35463 332.19 6.64475 332.257C5.94982 332.324 6.37575 339.139 6.37575 339.139C6.37575 339.139 6.70453 340.581 5.89004 340.686C4.42544 340.88 4.50017 333.602 4.53006 332.915C4.545 332.436 3.77535 332.481 3.79029 332.997C3.79776 333.527 4.37313 339.782 2.88612 339.991C1.74284 340.155 2.8936 334.006 2.05669 332.78C1.21978 331.547 1.66065 337.525 0.562205 337.637C0.151222 337.674 -0.155153 337.652 0.0839648 334.185C0.330555 330.628 2.57228 321.116 2.57228 321.116L9.22274 322.349" fill="#FFBE9D"/>
<path d="M35.6378 271.282C35.6378 271.282 14.6852 291.712 14.2219 294.357C13.7511 297.002 10.7248 326.316 10.7248 326.316L1.1601 325.367C1.1601 325.367 0.255936 289.231 3.25985 285.562C6.26376 281.893 18.1823 268.069 18.1823 268.069L35.6378 271.282Z" fill="#FFBE9D"/>
<path d="M4.14154 289.373C4.12659 289.388 4.00704 289.305 3.86506 289.089C3.72309 288.872 3.56616 288.513 3.58111 288.035C3.58858 287.564 3.82023 286.974 4.3433 286.6C4.83648 286.219 5.63602 286.055 6.31601 286.399C6.65227 286.563 6.92875 286.847 7.05578 287.191C7.18281 287.527 7.17534 287.901 7.03337 288.207C6.73447 288.857 5.94987 288.992 5.52394 288.715C5.06812 288.416 5.06812 287.923 5.15779 287.684C5.24746 287.422 5.40438 287.355 5.41185 287.37C5.43427 287.393 5.32218 287.49 5.27735 287.714C5.23251 287.923 5.29229 288.327 5.63602 288.513C5.96481 288.7 6.57008 288.566 6.76436 288.087C6.86897 287.856 6.86897 287.564 6.76436 287.303C6.66722 287.041 6.45052 286.817 6.17404 286.683C5.62108 286.399 4.95603 286.518 4.51516 286.832C4.05934 287.146 3.84264 287.624 3.80528 288.043C3.73803 288.909 4.19385 289.35 4.14154 289.373Z" fill="#EB996E"/>
<path d="M79.6279 219.147C79.486 219.55 77.6403 245.95 77.6403 245.95L88.2436 245.143L90.859 222.166L79.6279 219.147Z" fill="#424B54"/>
<path d="M77.6478 245.95L76.2205 245.547L78.268 218.751L79.7998 219.192L77.6478 245.95Z" fill="#263238"/>
<path d="M85.6954 226.066C86.038 226.066 86.3156 225.788 86.3156 225.446C86.3156 225.103 86.038 224.826 85.6954 224.826C85.3529 224.826 85.0752 225.103 85.0752 225.446C85.0752 225.788 85.3529 226.066 85.6954 226.066Z" fill="#263238"/>
<path d="M74.0759 259.042L92.7495 263.892L89.7979 241.751L89.4168 240.697L82.5721 239.644L83.3941 234.592C83.82 232.231 86.1663 230.729 88.4902 231.342C89.2375 231.543 90.0221 231.753 90.7394 231.939C92.3385 232.365 93.6911 233.441 94.4458 234.921C95.746 237.462 97.0088 240.241 96.8892 240.002L106.902 267.164C106.902 267.164 109.996 272.657 105.796 278.112C102.568 282.304 94.7746 279.389 91.1056 278.679L67.1864 273.411L74.0759 259.042Z" fill="#FFBE9D"/>
<path d="M36.8035 232.067C36.9604 232.493 36.8334 233.001 36.5046 233.315C36.1758 233.621 35.6602 233.711 35.2418 233.531C34.4572 233.187 34.3003 232.134 34.4049 231.282C34.5095 230.43 34.7486 229.511 34.3526 228.756C34.0462 228.173 33.4409 227.83 32.9627 227.381C32.1183 226.604 31.6326 225.439 31.7671 224.303C31.9016 223.167 32.6862 222.106 33.7697 221.74C34.8756 221.366 36.2805 221.635 37.0725 220.776C37.6479 220.156 37.633 219.184 38.0589 218.459C38.7239 217.331 40.2558 217.069 41.5635 217.182C42.8711 217.286 44.2162 217.63 45.4715 217.249C46.5177 216.928 47.3546 216.135 48.326 215.627C50.4332 214.521 53.2204 214.91 54.9466 216.539C56.6727 218.175 57.2182 220.94 56.2318 223.1C55.8806 223.877 55.3202 224.594 54.543 224.96" fill="#263238"/>
<path d="M38.1113 254.364L50.4856 253.378C50.5603 251.936 50.4557 246.346 50.4557 246.346C50.4557 246.346 55.6042 245.547 55.664 240.398C55.7312 235.25 54.8346 223.429 54.8346 223.429C48.879 220.865 41.9969 221.732 36.8559 225.685L36.0937 226.275L38.1113 254.364Z" fill="#FFBE9D"/>
<path d="M53.6537 232.268C53.3474 231.992 53.325 231.521 53.6014 231.215C53.8779 230.908 54.3487 230.886 54.6551 231.163C54.9614 231.439 54.9838 231.91 54.7074 232.216C54.4309 232.523 53.9601 232.552 53.6537 232.268Z" fill="#263238"/>
<path d="M54.9017 231.095C54.8195 231.185 54.3189 230.796 53.609 230.789C52.8991 230.774 52.3835 231.155 52.3088 231.058C52.2714 231.021 52.3536 230.856 52.5778 230.684C52.7945 230.512 53.1756 230.348 53.6165 230.356C54.0573 230.363 54.431 230.535 54.6477 230.707C54.8644 230.894 54.9391 231.058 54.9017 231.095Z" fill="#263238"/>
<path d="M46.7345 231.715C47.0857 231.932 47.1978 232.395 46.9811 232.747C46.7644 233.098 46.3011 233.21 45.9499 232.993C45.5987 232.776 45.4866 232.313 45.7033 231.962C45.92 231.611 46.3833 231.499 46.7345 231.715Z" fill="#263238"/>
<path d="M47.2051 231.723C47.123 231.812 46.6223 231.424 45.9124 231.416C45.2025 231.401 44.6869 231.783 44.6122 231.685C44.5749 231.648 44.6571 231.484 44.8812 231.312C45.0979 231.14 45.479 230.976 45.9199 230.983C46.3608 230.99 46.7344 231.162 46.9511 231.334C47.1678 231.521 47.2425 231.678 47.2051 231.723Z" fill="#263238"/>
<path d="M50.0446 237.566C50.0372 237.514 50.478 237.424 51.1879 237.32C51.3747 237.297 51.5167 237.26 51.5316 237.155C51.5615 237.043 51.4943 236.849 51.3971 236.625C51.2178 236.154 51.031 235.683 50.8367 235.183C50.0596 233.128 49.5216 231.439 49.6262 231.394C49.7308 231.357 50.4407 232.986 51.2178 235.041C51.4046 235.541 51.5765 236.019 51.7484 236.49C51.8156 236.707 51.9426 236.954 51.853 237.26C51.8007 237.417 51.6587 237.521 51.5316 237.559C51.4121 237.596 51.3075 237.596 51.2178 237.604C50.5005 237.634 50.0521 237.626 50.0446 237.566Z" fill="#263238"/>
<path d="M47.7431 238.351C48.6697 238.717 49.7831 239.188 51.2178 239.36C51.2178 239.36 50.3883 240.682 48.9088 240.137C47.3695 239.576 47.7431 238.351 47.7431 238.351Z" fill="white"/>
<path d="M50.4631 246.264C50.4631 246.264 47.2126 246.526 43.7529 244.359C43.7529 244.359 45.337 248.065 50.4781 247.602L50.4631 246.264Z" fill="#EB996E"/>
<path d="M54.9466 224.721C54.9466 224.721 51.9352 226.462 47.7208 224.736C44.956 223.6 41.7951 223.182 41.1525 223.772C40.5099 224.362 40.5622 227.12 37.9842 228.114C37.9842 228.114 38.5521 233.344 36.4524 233.314C34.3451 233.284 35.055 225.065 35.055 225.065L39.9868 222.188L45.494 220.723L50.8069 221.075L54.9615 221.889V224.721H54.9466Z" fill="#263238"/>
<path d="M36.7363 231.603C36.6466 231.566 33.2018 230.557 33.3139 234.077C33.426 237.596 36.938 236.759 36.938 236.655C36.938 236.558 36.7363 231.603 36.7363 231.603Z" fill="#FFBE9D"/>
<path d="M35.8171 235.354C35.8022 235.347 35.7573 235.399 35.6527 235.452C35.5556 235.504 35.3837 235.541 35.1969 235.474C34.8233 235.347 34.487 234.772 34.4496 234.136C34.4272 233.815 34.487 233.509 34.5916 233.255C34.6888 232.993 34.8532 232.806 35.04 232.769C35.2268 232.717 35.3613 232.829 35.4061 232.926C35.4584 233.023 35.436 233.09 35.4584 233.098C35.4659 233.105 35.5332 233.038 35.4958 232.889C35.4808 232.821 35.436 232.739 35.3538 232.672C35.2641 232.605 35.1446 232.575 35.0101 232.59C34.7411 232.62 34.502 232.874 34.3899 233.158C34.2554 233.442 34.1881 233.785 34.2105 234.144C34.2554 234.854 34.6365 235.504 35.1521 235.638C35.3986 235.698 35.6079 235.616 35.7125 235.526C35.8171 235.444 35.832 235.362 35.8171 235.354Z" fill="#EB996E"/>
<path d="M34.3452 220.701C34.3078 220.604 34.8906 220.35 35.6005 220.574C36.3104 220.791 36.6467 221.329 36.5645 221.389C36.4823 221.463 36.0788 221.12 35.4884 220.948C34.8981 220.753 34.3751 220.806 34.3452 220.701Z" fill="#263238"/>
<path d="M36.3478 218.474C36.4673 218.482 36.4599 219.221 36.6317 220.066C36.7961 220.918 37.1922 221.523 37.1025 221.59C37.0352 221.665 36.4375 221.097 36.2506 220.141C36.0638 219.214 36.2506 218.467 36.3478 218.474Z" fill="#263238"/>
<path d="M51.457 229.937C51.3449 229.765 51.995 229.19 53.0187 229.145C54.035 229.1 54.7374 229.608 54.6402 229.795C54.5506 229.997 53.8631 229.877 53.0486 229.922C52.2341 229.952 51.5616 230.131 51.457 229.937Z" fill="#263238"/>
<path d="M43.5586 229.279C43.4465 229.107 44.0966 228.532 45.1204 228.487C46.1366 228.442 46.839 228.95 46.7419 229.137C46.6522 229.339 45.9648 229.219 45.1503 229.264C44.3432 229.294 43.6632 229.474 43.5586 229.279Z" fill="#263238"/>
<path d="M14.431 446.779L13.2055 451.928C13.2055 451.928 4.77663 462.875 2.1837 462.337C0.479987 461.985 2.57226 459.131 5.77793 450.822L6.45045 447.392L14.431 446.779Z" fill="#424B54"/>
<path d="M1.83253 460.73C1.84747 460.715 1.91472 460.969 2.28087 461.164C2.63207 461.365 3.29712 461.38 3.89492 460.939C5.04567 460.028 6.52521 458.593 8.08694 456.964C9.64868 455.328 10.9563 453.751 11.8829 452.593C12.2939 452.07 12.6526 451.606 12.959 451.203C13.0636 451.068 13.1607 450.941 13.2504 450.822C13.3176 450.74 13.355 450.695 13.3625 450.695C13.3699 450.695 13.3401 450.747 13.2803 450.837C13.1981 450.964 13.1084 451.091 13.0113 451.233C12.7721 451.576 12.4209 452.062 11.9726 452.652C11.0684 453.833 9.76823 455.425 8.2065 457.061C6.63729 458.698 5.15775 460.11 3.96217 461.022C3.64832 461.223 3.31954 461.358 3.01317 461.373C2.7068 461.388 2.44527 461.313 2.26593 461.208C2.07912 461.104 1.96703 460.969 1.91472 460.88C1.84 460.79 1.83253 460.73 1.83253 460.73Z" fill="#263238"/>
<path d="M3.02825 457.211C3.02077 457.196 3.28231 457.099 3.72318 457.136C4.15658 457.166 4.7469 457.338 5.31481 457.689C5.88271 458.033 6.29369 458.511 6.47303 458.907C6.65237 459.303 6.66731 459.579 6.65237 459.579C6.62248 459.587 6.57018 459.325 6.37589 458.952C6.18161 458.578 5.78557 458.145 5.24008 457.816C4.6946 457.48 4.13417 457.293 3.72318 457.241C3.28978 457.181 3.02825 457.233 3.02825 457.211Z" fill="#263238"/>
<path d="M11.0013 454.64C10.9938 454.64 10.9564 454.558 10.8967 454.393C10.8444 454.229 10.7771 453.99 10.7323 453.691C10.6277 453.086 10.6874 452.189 11.1283 451.345C11.5617 450.493 12.2716 449.932 12.832 449.686C13.116 449.559 13.3551 449.499 13.527 449.469C13.6988 449.447 13.796 449.447 13.796 449.454C13.8034 449.484 13.4149 449.514 12.8843 449.783C12.3538 450.044 11.6813 450.59 11.2703 451.412C10.8444 452.226 10.7696 453.078 10.8518 453.669C10.9116 454.274 11.0312 454.633 11.0013 454.64Z" fill="#263238"/>
<path d="M13.8931 447.653C13.9304 447.668 13.7436 448.386 13.5867 449.297C13.4298 450.209 13.1907 450.934 13.1458 450.919C13.1085 450.904 13.2803 450.186 13.4298 449.267C13.5867 448.356 13.8482 447.638 13.8931 447.653Z" fill="#263238"/>
<path d="M5.62107 451.554C5.6136 451.517 6.10678 451.427 6.70457 451.561C7.30236 451.696 7.70588 451.995 7.68346 452.025C7.66104 452.062 7.23511 451.838 6.67468 451.711C6.10677 451.584 5.62854 451.599 5.62107 451.554Z" fill="#263238"/>
<path d="M5.44923 452.436C5.43429 452.398 5.85274 452.279 6.36087 452.398C6.86899 452.518 7.19031 452.809 7.16042 452.839C7.13053 452.877 6.79427 452.66 6.32351 452.548C5.85275 452.436 5.45671 452.481 5.44923 452.436Z" fill="#263238"/>
<path d="M4.77669 453.542C4.75428 453.512 5.1802 453.295 5.71821 453.415C6.2637 453.534 6.55513 453.915 6.51776 453.93C6.48787 453.968 6.17403 453.669 5.68832 453.564C5.19514 453.452 4.79164 453.586 4.77669 453.542Z" fill="#263238"/>
<path d="M6.20392 451.18C6.19645 451.158 6.59249 451.076 7.19028 450.844C7.48918 450.724 7.84038 450.568 8.20653 450.358C8.39334 450.254 8.58015 450.134 8.76696 450C8.93883 449.873 9.12564 449.686 9.11817 449.492C9.11817 449.29 8.86411 449.185 8.66982 449.23C8.46807 449.275 8.30367 449.432 8.14675 449.574C7.83291 449.865 7.57138 450.142 7.35468 450.388C6.92128 450.866 6.68216 451.195 6.66722 451.18C6.65974 451.173 6.70457 451.083 6.80919 450.934C6.9138 450.784 7.06325 450.568 7.27248 450.321C7.48171 450.067 7.73577 449.783 8.04961 449.477C8.19906 449.327 8.3784 449.148 8.63246 449.088C8.87158 449.021 9.25267 449.148 9.26761 449.484C9.26014 449.798 9.03597 449.985 8.84916 450.127C8.65488 450.261 8.4606 450.381 8.27379 450.485C7.89269 450.695 7.53402 450.844 7.22765 450.956C6.92128 451.061 6.65974 451.121 6.4804 451.158C6.30854 451.18 6.20392 451.188 6.20392 451.18Z" fill="#263238"/>
<path d="M6.64476 451.076C6.62234 451.076 6.58497 450.71 6.48783 450.134C6.43552 449.85 6.3608 449.507 6.20388 449.163C6.12169 448.991 6.02455 448.812 5.89004 448.67C5.76301 448.528 5.56873 448.401 5.41181 448.49C5.26236 448.573 5.23247 448.812 5.25489 448.999C5.28478 449.193 5.34456 449.387 5.41928 449.566C5.56873 449.918 5.77796 450.194 5.97224 450.411C6.3608 450.844 6.6597 451.053 6.64476 451.076C6.63729 451.083 6.55509 451.038 6.42058 450.949C6.28608 450.852 6.0918 450.702 5.88257 450.493C5.67334 450.276 5.44917 449.992 5.28478 449.626C5.20258 449.439 5.13533 449.245 5.09797 449.021C5.07555 448.812 5.07555 448.513 5.32961 448.356C5.60609 448.214 5.86762 448.416 5.99466 448.565C6.1441 448.737 6.24125 448.924 6.32344 449.103C6.48784 449.469 6.54762 449.828 6.59245 450.119C6.62981 450.418 6.63729 450.657 6.64476 450.822C6.6597 450.986 6.65223 451.076 6.64476 451.076Z" fill="#263238"/>
<path d="M56.3146 449.387L56.3519 442.512L43.4844 442.355L43.32 452.406L44.1196 452.466C47.669 452.705 62.1804 453.437 64.5641 452.75C67.2243 451.98 56.3146 449.387 56.3146 449.387Z" fill="#424B54"/>
<path d="M43.14 452.114C43.14 452.122 43.2147 452.129 43.3642 452.144C43.5584 452.159 43.7602 452.174 43.9993 452.189C44.6345 452.227 45.4191 452.271 46.3382 452.316C48.3109 452.413 51.0458 452.51 54.0572 452.548C57.076 452.585 59.8035 452.563 61.7837 452.525C62.7028 452.496 63.4874 452.473 64.1225 452.458C64.3617 452.451 64.5709 452.436 64.7577 452.428C64.8997 452.421 64.9819 452.413 64.9819 452.406C64.9819 452.398 64.9071 452.398 64.7577 452.398C64.5634 452.398 64.3542 452.398 64.1225 452.398C63.4874 452.406 62.7028 452.406 61.7837 452.413C59.8109 452.428 57.076 452.436 54.0647 452.391C51.0533 452.354 48.3184 452.271 46.3456 452.204C45.4265 452.174 44.6419 452.144 44.0068 452.122C43.7677 452.114 43.5584 452.107 43.3716 452.107C43.2222 452.107 43.14 452.107 43.14 452.114Z" fill="#263238"/>
<path d="M60.476 452.69C60.5208 452.697 60.5656 452.137 60.9243 451.576C61.2755 451.008 61.7612 450.732 61.7313 450.695C61.7239 450.657 61.1709 450.889 60.7898 451.494C60.4087 452.092 60.4386 452.697 60.476 452.69Z" fill="#263238"/>
<path d="M56.7024 450.71C56.7397 450.732 56.9266 450.515 57.1134 450.224C57.3076 449.932 57.4272 449.671 57.3973 449.648C57.36 449.626 57.1731 449.843 56.9863 450.134C56.7921 450.433 56.665 450.687 56.7024 450.71Z" fill="#263238"/>
<path d="M55.6712 450.149C55.7011 450.179 55.9028 450.052 56.127 449.85C56.3512 449.656 56.5081 449.469 56.4782 449.439C56.4483 449.41 56.2466 449.537 56.0224 449.738C55.7982 449.933 55.6413 450.119 55.6712 450.149Z" fill="#263238"/>
<path d="M55.0287 448.924C55.0287 448.969 55.3276 449.006 55.7012 449.021C56.0748 449.029 56.3737 448.999 56.3737 448.961C56.3737 448.916 56.0748 448.879 55.7012 448.864C55.3276 448.857 55.0287 448.879 55.0287 448.924Z" fill="#263238"/>
<path d="M54.8119 448.064C54.7969 448.102 55.1257 448.251 55.5591 448.289C55.9925 448.326 56.3437 448.236 56.3362 448.199C56.3288 448.154 55.9925 448.177 55.5741 448.139C55.1556 448.102 54.8268 448.02 54.8119 448.064Z" fill="#263238"/>
<path d="M57.1508 449.596C57.1508 449.611 57.4646 449.656 57.9802 449.604C58.2343 449.574 58.5406 449.522 58.8619 449.424C59.0263 449.372 59.1907 449.327 59.3701 449.223C59.4523 449.17 59.5419 449.096 59.5793 448.969C59.6167 448.842 59.5494 448.707 59.4597 448.64C58.6751 448.221 57.8756 448.655 57.5767 449.058C57.4123 449.267 57.3376 449.469 57.3002 449.604C57.2628 449.746 57.2703 449.828 57.2778 449.828C57.3077 449.835 57.3376 449.507 57.6664 449.125C57.8233 448.939 58.0699 448.767 58.3762 448.677C58.6677 448.595 59.0861 448.573 59.3626 448.759C59.4896 448.856 59.4373 449.013 59.2953 449.096C59.1608 449.185 58.9815 449.23 58.8246 449.29C58.5107 449.395 58.2193 449.462 57.9727 449.499C57.4721 449.574 57.1508 449.574 57.1508 449.596Z" fill="#263238"/>
<path d="M57.3674 449.641C57.3824 449.649 57.502 449.439 57.4721 449.066C57.4571 448.886 57.3899 448.662 57.2554 448.46C57.1134 448.274 56.9266 448.02 56.5754 448.027C56.3811 448.049 56.284 448.266 56.3138 448.408C56.3288 448.55 56.3886 448.677 56.4483 448.782C56.5679 448.991 56.7024 449.155 56.8294 449.29C57.0835 449.544 57.2927 449.649 57.3002 449.634C57.3151 449.611 57.1358 449.484 56.9116 449.215C56.7996 449.081 56.68 448.916 56.5754 448.714C56.4633 448.535 56.3886 448.221 56.5978 448.191C56.807 448.176 57.0162 448.386 57.1358 448.55C57.2628 448.729 57.3301 448.924 57.36 449.088C57.4198 449.417 57.3376 449.634 57.3674 449.641Z" fill="#263238"/>
<path d="M43.4464 448.595C43.4464 448.625 43.8125 448.565 44.3954 448.64C44.9707 448.715 45.7703 448.961 46.4577 449.522C47.1452 450.09 47.5487 450.822 47.728 451.367C47.9149 451.92 47.9298 452.294 47.9597 452.286C47.9672 452.286 47.9746 452.197 47.9597 452.025C47.9522 451.86 47.9149 451.614 47.8252 451.33C47.6608 450.755 47.2648 449.985 46.5474 449.395C45.83 448.804 44.9931 448.573 44.3954 448.528C44.0965 448.505 43.8499 448.513 43.6855 448.535C43.536 448.565 43.4464 448.588 43.4464 448.595Z" fill="#263238"/>
<path d="M44.8513 443.26C44.8064 443.26 44.7467 444.44 44.7093 445.905C44.6719 447.362 44.6794 448.55 44.7168 448.55C44.7616 448.55 44.8214 447.37 44.8587 445.905C44.9036 444.44 44.8961 443.26 44.8513 443.26Z" fill="#263238"/>
<path d="M49.6261 451.136C49.6186 451.173 50.4556 451.322 51.5017 451.345C52.5478 451.367 53.3922 451.255 53.3847 451.218C53.3847 451.173 52.5404 451.21 51.5017 451.188C50.4705 451.165 49.6261 451.091 49.6261 451.136Z" fill="#263238"/>
<path d="M47.1004 451.098C47.0705 451.128 47.1676 451.278 47.2498 451.472C47.3395 451.666 47.3768 451.838 47.4217 451.838C47.4665 451.838 47.4889 451.636 47.3918 451.412C47.2946 451.18 47.1302 451.068 47.1004 451.098Z" fill="#263238"/>
<path d="M46.1663 449.903C46.1364 449.933 46.2186 450.067 46.3457 450.202C46.4802 450.336 46.6072 450.426 46.6371 450.396C46.667 450.366 46.5848 450.231 46.4577 450.097C46.3307 449.955 46.1962 449.873 46.1663 449.903Z" fill="#263238"/>
<path d="M44.8138 449.342C44.8213 449.387 44.9932 449.387 45.18 449.454C45.3668 449.522 45.5013 449.626 45.5387 449.596C45.576 449.574 45.4639 449.387 45.2323 449.305C45.0006 449.23 44.7989 449.305 44.8138 449.342Z" fill="#263238"/>
<path d="M43.8499 449.073C43.835 449.111 43.9097 449.178 44.0143 449.223C44.1189 449.267 44.2161 449.267 44.2385 449.23C44.2534 449.193 44.1787 449.125 44.0741 449.081C43.962 449.036 43.8649 449.036 43.8499 449.073Z" fill="#263238"/>
<path d="M65.0717 312.933L59.0638 446.428L39.0228 446.846L42.3555 335.089L19.8112 447.698H0.756561L26.2001 312.933" fill="#263238"/>
<path d="M5.55366 445.77C5.65828 445.785 5.70311 446.047 5.65081 446.353C5.5985 446.66 5.47147 446.891 5.36685 446.876C5.26224 446.861 5.2174 446.6 5.26971 446.293C5.32202 445.987 5.44905 445.748 5.55366 445.77Z" fill="#424B54"/>
<path d="M6.28598 441.399C6.3906 441.414 6.39807 441.922 6.29346 442.527C6.18884 443.132 6.02445 443.603 5.91984 443.588C5.81522 443.573 5.80775 443.065 5.91236 442.46C6.0095 441.855 6.18137 441.384 6.28598 441.399Z" fill="#424B54"/>
<path d="M7.01837 437.028C7.12298 437.043 7.13045 437.551 7.02584 438.156C6.92122 438.761 6.75683 439.232 6.65222 439.217C6.5476 439.202 6.54014 438.694 6.64475 438.089C6.74936 437.483 6.91376 437.013 7.01837 437.028Z" fill="#424B54"/>
<path d="M7.75803 432.656C7.86264 432.671 7.87012 433.179 7.7655 433.784C7.66089 434.39 7.4965 434.86 7.39188 434.846C7.28727 434.831 7.2798 434.322 7.38441 433.717C7.48155 433.112 7.64594 432.641 7.75803 432.656Z" fill="#424B54"/>
<path d="M8.49028 428.285C8.5949 428.3 8.60237 428.808 8.49776 429.413C8.39314 430.018 8.22875 430.489 8.12414 430.474C8.01952 430.459 8.01205 429.951 8.11666 429.346C8.2138 428.741 8.38567 428.27 8.49028 428.285Z" fill="#424B54"/>
<path d="M9.23019 423.914C9.33481 423.929 9.34228 424.437 9.23766 425.042C9.13305 425.647 8.96865 426.118 8.86404 426.103C8.75943 426.088 8.75196 425.58 8.85657 424.975C8.95371 424.369 9.12558 423.891 9.23019 423.914Z" fill="#424B54"/>
<path d="M9.96986 419.542C10.0745 419.557 10.0819 420.065 9.97733 420.67C9.87272 421.276 9.70833 421.747 9.60371 421.732C9.4991 421.717 9.49163 421.208 9.59624 420.603C9.69338 419.998 9.86525 419.52 9.96986 419.542Z" fill="#424B54"/>
<path d="M10.7096 415.171C10.8142 415.186 10.8217 415.694 10.7171 416.299C10.6124 416.904 10.448 417.375 10.336 417.36C10.2313 417.345 10.2239 416.837 10.3285 416.232C10.4331 415.627 10.605 415.148 10.7096 415.171Z" fill="#424B54"/>
<path d="M11.4568 410.799C11.5614 410.814 11.5689 411.322 11.4643 411.928C11.3596 412.533 11.1953 413.004 11.0832 412.989C10.9786 412.974 10.9786 412.466 11.0757 411.86C11.1803 411.255 11.3522 410.784 11.4568 410.799Z" fill="#424B54"/>
<path d="M12.2041 406.428C12.3087 406.443 12.3087 406.951 12.2116 407.556C12.107 408.162 11.9351 408.632 11.8305 408.617C11.7259 408.602 11.7259 408.094 11.823 407.489C11.9276 406.884 12.0995 406.413 12.2041 406.428Z" fill="#424B54"/>
<path d="M12.9513 402.057C13.0559 402.072 13.0559 402.58 12.9588 403.185C12.8542 403.79 12.6823 404.261 12.5777 404.246C12.4731 404.231 12.4731 403.723 12.5702 403.118C12.6823 402.512 12.8467 402.042 12.9513 402.057Z" fill="#424B54"/>
<path d="M13.706 397.693C13.8106 397.708 13.8106 398.216 13.706 398.821C13.6014 399.426 13.4295 399.897 13.3249 399.882C13.2203 399.867 13.2203 399.359 13.3249 398.754C13.4295 398.148 13.6014 397.67 13.706 397.693Z" fill="#424B54"/>
<path d="M14.4683 393.321C14.5729 393.336 14.5729 393.845 14.4683 394.45C14.3637 395.055 14.1918 395.526 14.0872 395.511C13.9826 395.496 13.9826 394.988 14.0872 394.383C14.1918 393.777 14.3637 393.307 14.4683 393.321Z" fill="#424B54"/>
<path d="M15.2304 388.957C15.335 388.972 15.335 389.481 15.2304 390.086C15.1258 390.691 14.9539 391.162 14.8493 391.147C14.7447 391.132 14.7447 390.624 14.8493 390.019C14.9539 389.413 15.1258 388.935 15.2304 388.957Z" fill="#424B54"/>
<path d="M16.0001 384.586C16.1047 384.601 16.1047 385.109 16.0001 385.714C15.8955 386.32 15.7236 386.79 15.619 386.775C15.5144 386.761 15.5144 386.252 15.619 385.647C15.7236 385.042 15.8955 384.571 16.0001 384.586Z" fill="#424B54"/>
<path d="M16.7698 380.222C16.8744 380.245 16.8744 380.745 16.7698 381.351C16.6652 381.956 16.4933 382.427 16.3813 382.412C16.2766 382.389 16.2766 381.889 16.3813 381.283C16.4933 380.678 16.6652 380.2 16.7698 380.222Z" fill="#424B54"/>
<path d="M17.5469 375.858C17.6515 375.881 17.6515 376.381 17.5469 376.987C17.4423 377.592 17.263 378.063 17.1583 378.04C17.0537 378.018 17.0537 377.517 17.1583 376.912C17.2704 376.314 17.4423 375.836 17.5469 375.858Z" fill="#424B54"/>
<path d="M18.3314 371.494C18.436 371.517 18.436 372.017 18.3239 372.623C18.2119 373.228 18.04 373.699 17.9354 373.676C17.8308 373.654 17.8308 373.153 17.9429 372.548C18.0549 371.95 18.2268 371.472 18.3314 371.494Z" fill="#424B54"/>
<path d="M19.1236 367.13C19.2282 367.153 19.2282 367.653 19.1161 368.259C19.004 368.864 18.8321 369.335 18.7275 369.312C18.6229 369.29 18.6229 368.789 18.735 368.184C18.8396 367.586 19.019 367.108 19.1236 367.13Z" fill="#424B54"/>
<path d="M19.9156 362.767C20.0202 362.789 20.0202 363.29 19.9081 363.895C19.796 364.5 19.6242 364.971 19.5195 364.949C19.4149 364.926 19.4149 364.425 19.527 363.82C19.6391 363.222 19.811 362.752 19.9156 362.767Z" fill="#424B54"/>
<path d="M20.7226 358.41C20.8272 358.433 20.8272 358.933 20.7151 359.539C20.6031 360.144 20.4312 360.615 20.3191 360.592C20.2145 360.57 20.2145 360.069 20.3266 359.464C20.4387 358.859 20.618 358.388 20.7226 358.41Z" fill="#424B54"/>
<path d="M21.5371 354.046C21.6418 354.069 21.6343 354.569 21.5222 355.175C21.4101 355.78 21.2308 356.251 21.1262 356.228C21.0215 356.206 21.029 355.705 21.1411 355.1C21.2532 354.502 21.4251 354.031 21.5371 354.046Z" fill="#424B54"/>
<path d="M22.3516 349.69C22.4563 349.712 22.4488 350.213 22.3367 350.818C22.2246 351.423 22.0453 351.894 21.9407 351.872C21.836 351.849 21.8435 351.349 21.9556 350.743C22.0677 350.146 22.247 349.675 22.3516 349.69Z" fill="#424B54"/>
<path d="M23.1811 345.333C23.2857 345.356 23.2782 345.856 23.1661 346.462C23.054 347.059 22.8747 347.538 22.7701 347.515C22.6655 347.493 22.673 346.992 22.785 346.387C22.8971 345.789 23.0765 345.318 23.1811 345.333Z" fill="#424B54"/>
<path d="M24.018 340.984C24.1226 341.007 24.1151 341.508 24.003 342.113C23.891 342.711 23.7116 343.181 23.5995 343.166C23.4949 343.144 23.5024 342.643 23.6145 342.038C23.734 341.433 23.9134 340.962 24.018 340.984Z" fill="#424B54"/>
<path d="M24.8624 336.628C24.967 336.65 24.9595 337.151 24.84 337.756C24.7204 338.354 24.5411 338.825 24.4365 338.81C24.3319 338.788 24.3393 338.287 24.4589 337.682C24.5784 337.076 24.7578 336.606 24.8624 336.628Z" fill="#424B54"/>
<path d="M25.7143 332.279C25.8189 332.302 25.8114 332.802 25.6919 333.408C25.5723 334.005 25.393 334.476 25.2884 334.454C25.1838 334.431 25.1912 333.931 25.3108 333.325C25.4304 332.728 25.6097 332.257 25.7143 332.279Z" fill="#424B54"/>
<path d="M26.5809 327.93C26.6855 327.953 26.6781 328.453 26.551 329.059C26.4315 329.656 26.2521 330.127 26.1401 330.105C26.0354 330.082 26.0429 329.582 26.1699 328.976C26.297 328.379 26.4763 327.908 26.5809 327.93Z" fill="#424B54"/>
<path d="M27.4553 323.581C27.5599 323.604 27.545 324.104 27.4254 324.71C27.3058 325.307 27.119 325.778 27.0144 325.756C26.9098 325.733 26.9247 325.233 27.0443 324.627C27.1713 324.03 27.3507 323.559 27.4553 323.581Z" fill="#424B54"/>
<path d="M28.3446 319.24C28.4492 319.262 28.4343 319.763 28.3147 320.368C28.1952 320.966 28.0084 321.437 27.9038 321.414C27.7991 321.392 27.8141 320.891 27.9337 320.286C28.0607 319.681 28.24 319.217 28.3446 319.24Z" fill="#424B54"/>
<path d="M29.0245 315.967C29.1291 315.989 29.1665 316.251 29.0992 316.557C29.0394 316.864 28.8975 317.088 28.7928 317.065C28.6882 317.043 28.6509 316.781 28.7181 316.475C28.7854 316.169 28.9199 315.944 29.0245 315.967Z" fill="#424B54"/>
<path d="M42.4823 445.756C42.5869 445.763 42.6617 446.017 42.6467 446.324C42.6318 446.63 42.5272 446.877 42.4225 446.877C42.3179 446.869 42.2432 446.615 42.2582 446.309C42.2731 445.995 42.3702 445.748 42.4823 445.756Z" fill="#424B54"/>
<path d="M42.6617 441.31C42.7663 441.317 42.8335 441.818 42.8111 442.43C42.7887 443.043 42.6841 443.536 42.572 443.536C42.4674 443.529 42.4001 443.028 42.4225 442.415C42.4524 441.795 42.557 441.302 42.6617 441.31Z" fill="#424B54"/>
<path d="M42.8036 436.856C42.9083 436.856 42.983 437.357 42.968 437.977C42.9531 438.589 42.8485 439.09 42.7439 439.083C42.6392 439.083 42.5645 438.582 42.5795 437.962C42.5944 437.349 42.6916 436.856 42.8036 436.856Z" fill="#424B54"/>
<path d="M42.9157 432.41C43.0203 432.41 43.095 432.911 43.08 433.531C43.0651 434.143 42.968 434.644 42.8559 434.637C42.7513 434.637 42.6765 434.136 42.6915 433.516C42.7064 432.903 42.8036 432.41 42.9157 432.41Z" fill="#424B54"/>
<path d="M43.0204 427.956C43.125 427.956 43.1997 428.457 43.1848 429.077C43.1698 429.69 43.0727 430.191 42.9606 430.183C42.856 430.183 42.7812 429.682 42.7962 429.062C42.8111 428.449 42.9083 427.956 43.0204 427.956Z" fill="#424B54"/>
<path d="M43.1325 423.503C43.2371 423.503 43.3118 424.003 43.2969 424.624C43.2819 425.236 43.1773 425.737 43.0727 425.73C42.9681 425.73 42.8934 425.229 42.9083 424.609C42.9233 423.996 43.0279 423.503 43.1325 423.503Z" fill="#424B54"/>
<path d="M43.2819 419.057C43.3865 419.064 43.4612 419.565 43.4388 420.177C43.4164 420.79 43.3118 421.283 43.2072 421.283C43.1026 421.283 43.0278 420.775 43.0503 420.163C43.0727 419.542 43.1773 419.049 43.2819 419.057Z" fill="#424B54"/>
<path d="M43.4686 414.61C43.5732 414.618 43.6405 415.119 43.6181 415.731C43.5957 416.344 43.4836 416.837 43.379 416.837C43.2743 416.83 43.2071 416.329 43.2295 415.716C43.2519 415.096 43.364 414.603 43.4686 414.61Z" fill="#424B54"/>
<path d="M43.6406 410.157C43.7452 410.164 43.8125 410.665 43.7901 411.278C43.7677 411.891 43.663 412.384 43.551 412.384C43.4463 412.376 43.3791 411.876 43.4015 411.263C43.4314 410.65 43.536 410.157 43.6406 410.157Z" fill="#424B54"/>
<path d="M43.7974 405.711C43.9021 405.711 43.9768 406.219 43.9544 406.832C43.9319 407.444 43.8273 407.938 43.7227 407.938C43.6181 407.938 43.5434 407.429 43.5658 406.817C43.5882 406.204 43.6928 405.703 43.7974 405.711Z" fill="#424B54"/>
<path d="M43.932 401.257C44.0366 401.257 44.1114 401.758 44.0964 402.378C44.0815 402.991 43.9769 403.492 43.8722 403.484C43.7676 403.484 43.6929 402.984 43.7079 402.363C43.7228 401.751 43.8274 401.257 43.932 401.257Z" fill="#424B54"/>
<path d="M44.0516 396.811C44.1562 396.811 44.2309 397.312 44.216 397.932C44.201 398.545 44.1039 399.046 43.9918 399.038C43.8872 399.038 43.8124 398.537 43.8274 397.917C43.8423 397.304 43.9395 396.804 44.0516 396.811Z" fill="#424B54"/>
<path d="M44.1488 392.357C44.2534 392.357 44.3356 392.858 44.3207 393.471C44.3057 394.084 44.2086 394.584 44.104 394.577C43.9993 394.577 43.9171 394.076 43.9321 393.463C43.9396 392.851 44.0367 392.357 44.1488 392.357Z" fill="#424B54"/>
<path d="M44.2235 387.904C44.3281 387.904 44.4103 388.405 44.4029 389.018C44.3954 389.63 44.2983 390.131 44.1936 390.123C44.089 390.123 44.0068 389.623 44.0143 389.01C44.0218 388.405 44.1114 387.904 44.2235 387.904Z" fill="#424B54"/>
<path d="M44.2758 383.458C44.3804 383.458 44.4626 383.959 44.4551 384.571C44.4476 385.184 44.3579 385.685 44.2459 385.685C44.1412 385.685 44.0591 385.184 44.0665 384.571C44.074 383.951 44.1637 383.458 44.2758 383.458Z" fill="#424B54"/>
<path d="M44.3057 379.005C44.4103 379.005 44.5 379.505 44.4925 380.118C44.4925 380.731 44.3953 381.231 44.2907 381.231C44.1861 381.231 44.0964 380.731 44.1039 380.118C44.1114 379.505 44.2011 379.005 44.3057 379.005Z" fill="#424B54"/>
<path d="M44.3131 374.558C44.4177 374.558 44.5074 375.059 44.5074 375.672C44.5074 376.285 44.4177 376.785 44.3131 376.785C44.2085 376.785 44.1188 376.285 44.1188 375.672C44.1188 375.052 44.2085 374.558 44.3131 374.558Z" fill="#424B54"/>
<path d="M44.3056 370.105C44.4102 370.105 44.4999 370.605 44.5073 371.218C44.5073 371.831 44.4251 372.331 44.3205 372.331C44.2159 372.331 44.1262 371.831 44.1188 371.218C44.1113 370.605 44.1935 370.105 44.3056 370.105Z" fill="#424B54"/>
<path d="M44.2682 365.651C44.3728 365.651 44.4699 366.144 44.4699 366.765C44.4774 367.377 44.3952 367.878 44.2831 367.878C44.1785 367.878 44.0814 367.385 44.0814 366.765C44.0814 366.152 44.1636 365.651 44.2682 365.651Z" fill="#424B54"/>
<path d="M44.2085 361.205C44.3131 361.205 44.4102 361.698 44.4177 362.318C44.4252 362.931 44.343 363.432 44.2383 363.432C44.1337 363.432 44.0366 362.939 44.0291 362.318C44.0216 361.706 44.1038 361.205 44.2085 361.205Z" fill="#424B54"/>
<path d="M44.1337 356.752C44.2383 356.752 44.3355 357.245 44.3504 357.858C44.3654 358.47 44.2832 358.971 44.1786 358.971C44.0739 358.971 43.9768 358.478 43.9619 357.865C43.9469 357.252 44.0216 356.759 44.1337 356.752Z" fill="#424B54"/>
<path d="M44.0292 352.298C44.1338 352.298 44.2384 352.791 44.2534 353.404C44.2683 354.017 44.1936 354.517 44.089 354.525C43.9844 354.525 43.8797 354.032 43.8648 353.419C43.8499 352.806 43.9246 352.306 44.0292 352.298Z" fill="#424B54"/>
<path d="M43.8723 347.844C43.9769 347.837 44.089 348.337 44.1114 348.95C44.1338 349.563 44.0666 350.064 43.9619 350.071C43.8573 350.071 43.7452 349.578 43.7228 348.965C43.7004 348.352 43.7676 347.852 43.8723 347.844Z" fill="#424B54"/>
<path d="M43.6181 343.398C43.7228 343.391 43.8423 343.884 43.8872 344.497C43.9245 345.11 43.8722 345.618 43.7676 345.618C43.663 345.625 43.5434 345.132 43.4986 344.519C43.4538 343.914 43.5061 343.413 43.6181 343.398Z" fill="#424B54"/>
<path d="M43.2072 338.967C43.3118 338.952 43.4538 339.445 43.5136 340.058C43.5734 340.671 43.536 341.179 43.4314 341.186C43.3268 341.194 43.1848 340.708 43.125 340.096C43.0652 339.483 43.1026 338.982 43.2072 338.967Z" fill="#424B54"/>
<path d="M42.7738 335.657C42.8784 335.642 42.998 335.874 43.0428 336.187C43.0877 336.494 43.0354 336.755 42.9307 336.77C42.8261 336.785 42.6991 336.546 42.6617 336.24C42.6169 335.941 42.6692 335.679 42.7738 335.657Z" fill="#424B54"/>
<path d="M45.6881 314.622C45.718 314.622 45.7254 314.921 45.7105 315.444C45.703 315.974 45.6731 316.737 45.6358 317.686C45.5536 319.576 45.4116 322.192 45.2323 325.076C45.1351 326.511 45.0455 327.878 44.9633 329.141C44.8661 330.381 44.8512 331.54 44.4775 332.466C44.1263 333.4 43.4314 333.931 42.9233 334.118C42.6618 334.215 42.4525 334.237 42.3106 334.237C42.1686 334.237 42.0939 334.215 42.0939 334.2C42.0939 334.162 42.4002 334.2 42.8635 333.976C43.3193 333.759 43.9246 333.236 44.216 332.369C44.5299 331.502 44.5299 330.374 44.6046 329.118C44.6793 327.856 44.754 326.488 44.8437 325.053C45.023 322.169 45.2024 319.561 45.3593 317.671C45.434 316.729 45.5013 315.967 45.5611 315.436C45.6208 314.913 45.6657 314.622 45.6881 314.622Z" fill="#424B54"/>
<path d="M43.6331 316.393C43.6331 316.341 43.9694 316.4 44.089 316.841C44.1413 317.043 44.1338 317.334 43.9246 317.589C43.7153 317.85 43.3044 317.91 42.9905 317.775C42.6692 317.656 42.4226 317.32 42.4525 316.991C42.4749 316.669 42.6767 316.453 42.856 316.341C43.252 316.109 43.536 316.303 43.4986 316.333C43.4837 316.393 43.252 316.348 43.0204 316.557C42.9083 316.662 42.8037 316.826 42.8112 316.991C42.8112 317.155 42.9382 317.327 43.14 317.409C43.3417 317.491 43.5509 317.454 43.663 317.342C43.7826 317.222 43.8274 317.036 43.82 316.886C43.7975 316.58 43.6033 316.445 43.6331 316.393Z" fill="#424B54"/>
<path d="M24.7728 319.561C24.7953 319.502 25.4229 319.778 26.484 319.927C27.5376 320.077 29.062 320.032 30.549 319.367C32.036 318.702 33.0897 317.596 33.68 316.714C34.2778 315.825 34.487 315.175 34.5468 315.197C34.5841 315.205 34.472 315.9 33.9116 316.864C33.3661 317.82 32.2826 319.023 30.7134 319.726C29.1367 320.428 27.5227 320.428 26.4467 320.196C25.3482 319.972 24.7504 319.591 24.7728 319.561Z" fill="#424B54"/>
<path d="M58.1073 314.622C58.1745 314.622 58.1895 315.167 58.4435 315.997C58.6901 316.819 59.2431 317.917 60.2294 318.777C61.2158 319.636 62.374 320.039 63.2184 320.181C64.0703 320.331 64.6158 320.271 64.6232 320.338C64.6307 320.376 64.0852 320.54 63.1811 320.458C62.2844 320.383 61.029 320.002 59.9679 319.076C58.9143 318.149 58.3613 316.953 58.1745 316.072C57.9728 315.182 58.0624 314.622 58.1073 314.622Z" fill="#424B54"/>
<path d="M69.3533 317.678L25.1838 314.622L26.7156 293.52L26.7381 281.721L22.4489 288.356L9.11809 276.767L23.4502 258.063C25.8937 255.53 28.7481 253.654 32.163 252.421C33.8219 251.824 35.5854 251.465 37.6254 251.375C42.0266 252.735 46.4204 252.735 50.8217 251.383C52.63 251.607 56.822 251.876 62.8149 253.61L79.5382 258.13L74.031 278.672L63.9283 275.272C63.9208 275.272 69.4579 313.411 69.3533 317.678Z" fill="#FD7722"/>
<path d="M26.3047 282.408C26.215 282.348 26.8352 281.213 27.6871 279.875C28.5389 278.538 29.3086 277.491 29.3983 277.551C29.4879 277.603 28.8677 278.739 28.0159 280.084C27.164 281.422 26.3943 282.468 26.3047 282.408Z" fill="#263238"/>
<g opacity="0.6">
<path opacity="0.6" d="M78.918 258.347C78.918 258.452 66.5362 258.541 51.2625 258.541C35.9889 258.541 23.6071 258.452 23.6071 258.347C23.6071 258.243 35.9889 258.153 51.2625 258.153C66.5287 258.153 78.918 258.243 78.918 258.347Z" fill="white"/>
</g>
<g opacity="0.6">
<path opacity="0.6" d="M76.2429 267.882C76.2429 267.987 62.8747 268.076 46.3981 268.076C29.9064 268.076 16.5457 267.987 16.5457 267.882C16.5457 267.777 29.9064 267.688 46.3981 267.688C62.8822 267.688 76.2429 267.777 76.2429 267.882Z" fill="white"/>
</g>
<g opacity="0.6">
<path opacity="0.6" d="M64.6233 278.373C64.6233 278.478 52.6675 278.568 37.9169 278.568C23.1664 278.568 11.203 278.478 11.203 278.373C11.203 278.269 23.1589 278.179 37.9169 278.179C52.66 278.179 64.6233 278.269 64.6233 278.373Z" fill="white"/>
</g>
<g opacity="0.6">
<path opacity="0.6" d="M66.043 289.791C66.043 289.896 57.2479 289.985 46.398 289.985C35.548 289.985 26.753 289.896 26.753 289.791C26.753 289.687 35.548 289.597 46.398 289.597C57.2479 289.597 66.043 289.679 66.043 289.791Z" fill="white"/>
</g>
<g opacity="0.6">
<path opacity="0.6" d="M67.1713 301.635C67.1713 301.74 58.1446 301.829 47.0107 301.829C35.8693 301.829 26.8426 301.74 26.8426 301.635C26.8426 301.53 35.8693 301.441 47.0107 301.441C58.1446 301.441 67.1713 301.53 67.1713 301.635Z" fill="white"/>
</g>
<g opacity="0.6">
<path opacity="0.6" d="M68.9946 312.5C68.9946 312.604 59.2207 312.694 47.1676 312.694C35.1072 312.694 25.3407 312.604 25.3407 312.5C25.3407 312.395 35.1146 312.306 47.1676 312.306C59.2207 312.306 68.9946 312.388 68.9946 312.5Z" fill="white"/>
</g>
</svg>
