<svg width="106" height="186" viewBox="0 0 106 186" fill="none" xmlns="http://www.w3.org/2000/svg">
<path d="M21.6027 49.6249C21.4999 49.7145 21.3048 49.7356 21.2337 49.5853C20.6722 48.3992 19.8656 47.6874 18.7058 47.1128C18.3974 46.9599 18.1416 46.8176 17.9281 46.6278C17.7014 46.4986 17.4906 46.3062 17.2982 46.0268C16.7578 45.236 14.3696 41.7354 13.5893 41.0211C13.0859 40.5598 12.1211 39.8639 12.0368 39.1574C12.021 39.0283 12.1501 38.907 12.2793 38.965C12.6536 39.1337 13.0121 39.3235 13.36 39.5265C12.8908 39.1179 12.1 38.4879 12.1607 37.9264C12.1686 37.8632 12.2081 37.8078 12.2661 37.7814C12.8723 37.5178 13.8872 38.4088 14.3195 38.7436C15.2263 39.4421 16.0619 40.2408 16.8659 41.0527C16.8817 41.0474 16.8975 41.0395 16.9133 41.0343C16.2069 40.2118 15.4424 39.4421 14.7123 38.6355C14.2431 38.1188 13.7897 37.589 13.389 37.017C13.2045 36.7534 12.954 36.5135 13.1148 36.1972C13.1491 36.1313 13.2203 36.0681 13.2994 36.0865C14.1772 36.2658 14.9653 37.2015 15.569 37.8157C16.4731 38.7304 17.343 39.6794 18.1944 40.6415C18.2445 40.6257 18.2946 40.6125 18.342 40.5967C18.3868 40.5835 18.4316 40.5703 18.4738 40.5571C17.8464 39.6477 17.169 38.7805 16.4468 37.937C16.0883 37.5179 14.8335 36.3818 15.2658 35.7491C15.2975 35.7017 15.3712 35.6674 15.4266 35.6779C16.3334 35.8651 17.1506 37.0144 17.7199 37.6655C18.6241 38.7014 19.4201 39.8164 20.1266 40.9947C20.377 41.3031 20.5694 41.6932 20.7355 42.0939C20.7671 41.6695 20.7671 41.2451 20.7328 40.8155C20.6722 40.0827 20.4139 39.3762 20.4086 38.6434C20.4086 38.5222 20.5536 38.4615 20.6511 38.4958C21.89 38.9307 21.7978 40.9684 21.9612 41.9858C22.1457 43.1404 22.4436 44.3608 22.0113 45.4231C22.2538 45.8449 22.5042 46.264 22.7731 46.6726C22.9471 46.9362 23.4242 47.3975 23.4453 47.7402C23.4901 48.4255 22.0377 49.2453 21.6027 49.6249Z" fill="#F79884"/>
<path d="M38.4759 53.9084C23.8566 53.9084 12.0054 42.0572 12.0054 27.438C12.0054 12.8187 23.8566 0.967529 38.4759 0.967529C53.0951 0.967529 64.9463 12.8187 64.9463 27.438C64.9463 42.0572 53.0951 53.9084 38.4759 53.9084Z" fill="#F7F7FF"/>
<path d="M38.5761 53.8081C32.9272 53.8081 27.6895 52.0367 23.3929 49.0212C24.2786 47.4369 25.362 45.9371 26.5745 44.5321C29.9117 40.6704 34.0713 37.3912 36.5464 32.8495C39.7491 26.9765 38.6499 19.9965 39.1877 13.591C39.5725 9.00182 40.9591 4.70517 43.8059 1.38647C54.3155 3.49262 62.5741 11.8223 64.5774 22.3662C64.6301 23.0146 64.667 23.6657 64.696 24.3142C64.7935 26.5943 64.7909 28.877 64.7698 31.1598C62.9167 43.968 51.8957 53.8081 38.5761 53.8081Z" fill="white"/>
<path d="M38.5577 54.5594C45.9543 54.5594 52.9133 51.731 58.1483 46.5908C63.4018 41.4349 66.2935 34.5787 66.2935 27.2797C66.2935 19.9807 63.4018 13.1219 58.1483 7.96854C52.9133 2.83103 45.9543 0 38.5577 0C31.1612 0 24.2023 2.82839 18.9672 7.96854C13.7137 13.1245 10.822 19.9807 10.822 27.2797C10.822 34.5787 13.7137 41.4375 18.9672 46.5908C24.2023 51.7284 31.1586 54.5594 38.5577 54.5594ZM38.5577 1.54995C45.5773 1.54995 52.1752 4.23074 57.1361 9.09939C62.0864 13.9575 64.8121 20.413 64.8121 27.2797C64.8121 34.1464 62.0864 40.6019 57.1361 45.46C52.1752 50.3286 45.5773 53.0094 38.5577 53.0094C31.5381 53.0094 24.9403 50.3286 19.9794 45.46C15.029 40.6019 12.3035 34.1464 12.3035 27.2797C12.3035 20.413 15.029 13.9575 19.9794 9.09939C24.9403 4.23074 31.5381 1.54995 38.5577 1.54995Z" fill="#1F2144"/>
<path d="M37.8746 27.8862L39.2637 28.6875L50.4613 9.29466C50.6828 8.9098 50.5509 8.4195 50.1687 8.19808C49.7839 7.97666 49.2936 8.10846 49.0722 8.49067L37.8746 27.8862Z" fill="#1F2144"/>
<path d="M38.2384 28.3604L38.6128 26.8L16.837 21.5833C16.4047 21.4805 15.9724 21.7468 15.8696 22.1764C15.7668 22.6061 16.033 23.0411 16.4627 23.1439L38.2384 28.3604Z" fill="#1F2144"/>
<path d="M21.2761 28.9796V27.2979H16.331C15.8671 27.2979 15.4901 27.6748 15.4901 28.1387C15.4901 28.6026 15.8671 28.9796 16.331 28.9796H21.2761Z" fill="#1F2144"/>
<path d="M39.5537 44.3792H37.9484V49.6405C37.9484 50.0834 38.3069 50.4419 38.7497 50.4419C39.1926 50.4419 39.5511 50.0834 39.5511 49.6405V44.3792H39.5537Z" fill="#1F2144"/>
<path d="M37.5534 10.6387H39.1587V5.37727C39.1587 4.93443 38.8002 4.57593 38.3573 4.57593C37.9145 4.57593 37.5561 4.93443 37.5561 5.37727V10.6387H37.5534Z" fill="#1F2144"/>
<path d="M55.7307 29.1512V27.4695H60.6757C61.1397 27.4695 61.5166 27.8464 61.5166 28.3104C61.5166 28.7743 61.1397 29.1512 60.6757 29.1512H55.7307Z" fill="#1F2144"/>
<path d="M38.7873 30.1157C37.662 30.1157 36.7497 29.1598 36.7497 27.9806C36.7497 26.8014 37.662 25.8455 38.7873 25.8455C39.9127 25.8455 40.825 26.8014 40.825 27.9806C40.825 29.1598 39.9127 30.1157 38.7873 30.1157Z" fill="#1F2144"/>
<path d="M52.5837 165.384C51.8219 165.431 52.0934 165.273 51.4476 165.758C51.3527 165.829 51.2815 165.927 51.2262 166.035C50.8149 165.998 50.4011 166.219 50.3747 166.752C50.1665 171.08 49.3678 175.361 49.323 179.697C49.3177 180.251 49.692 180.704 50.2825 180.641C51.3579 180.525 51.0284 180.461 52.0644 180.164C52.3385 180.084 52.9738 178.466 53.0028 178.197C53.2506 176.012 53.8674 168.615 53.9096 166.396C53.9201 165.816 53.1715 165.344 52.5837 165.384Z" fill="#F79884"/>
<path d="M53.3818 177.715C52.3485 177.609 50.0789 177.691 48.9507 177.709C48.4525 177.752 48.2864 178.078 48.3128 178.245C48.5079 179.534 47.3217 179.468 45.7559 180.285C44.4221 180.981 43.1357 181.574 40.998 182.246C39.0948 182.844 39.2846 182.531 39.2872 183.756C39.2899 184.634 41.2563 184.46 42.8511 184.344C43.1015 184.326 43.3519 184.31 43.6023 184.294C44.3536 184.249 45.0943 184.086 45.7981 183.814C45.9272 183.764 46.0538 183.714 46.183 183.664C47.3533 183.203 48.4209 183.066 49.6783 183.071C49.7389 183.071 49.8153 183.111 49.8258 183.176C49.8496 183.308 49.8575 183.379 49.876 183.511C49.9102 183.743 50.1184 183.909 50.353 183.896C50.867 183.867 51.3837 183.838 51.9057 183.799C52.8862 183.727 53.8115 183.693 53.9565 183.443C54.1172 183.163 54.0408 183.116 54.0303 182.836C54.0013 182.088 53.7587 177.754 53.3818 177.715Z" fill="#1F2144"/>
<path d="M46.2258 181.376C46.3075 181.524 46.086 181.663 46.0017 181.516C45.8119 181.176 45.6274 180.83 45.4508 180.485C45.3744 180.335 45.5984 180.193 45.6748 180.345C45.8514 180.691 46.036 181.036 46.2258 181.376ZM47.4699 180.765C47.5569 180.912 47.3329 181.052 47.2459 180.904C47.0403 180.554 46.811 180.216 46.5579 179.897C46.4525 179.763 46.6766 179.626 46.782 179.758C47.035 180.079 47.2643 180.414 47.4699 180.765ZM48.7985 180.222C48.4743 179.976 48.1316 179.755 47.7757 179.557C47.6281 179.476 47.781 179.259 47.9286 179.341C48.2845 179.539 48.6272 179.76 48.9514 180.005C49.0858 180.108 48.9356 180.322 48.7985 180.222Z" fill="#464A8A"/>
<path d="M54.0257 182.839C54.0099 182.618 53.9809 182.367 53.944 182.106C52.7552 182.401 51.54 182.409 50.3195 182.438C49.1149 182.467 47.9551 182.599 46.7821 182.873C44.2964 183.458 41.8554 183.835 39.3011 183.785C39.3064 183.899 39.3143 184.033 39.3196 184.194C39.3486 185.072 41.3071 184.84 42.8992 184.676C43.1496 184.65 43.4001 184.626 43.6479 184.605C44.3991 184.539 45.1346 184.352 45.8278 184.059C45.9543 184.007 46.0809 183.951 46.2074 183.899C47.3646 183.403 48.4269 183.234 49.6843 183.203C49.7449 183.2 49.8213 183.24 49.8371 183.303C49.8635 183.432 49.874 183.506 49.8978 183.635C49.9373 183.867 50.1535 184.025 50.3854 184.007C50.8994 183.962 51.4134 183.917 51.9327 183.864C52.9107 183.764 53.8332 183.704 53.9703 183.448C54.1206 183.163 54.0442 183.116 54.0257 182.839Z" fill="#464A8A"/>
<path d="M82.9368 163.219C82.1776 163.28 82.4438 163.117 81.8059 163.612C81.7137 163.683 81.6425 163.784 81.5898 163.892C81.1786 163.86 80.7674 164.089 80.7489 164.622C80.6092 168.953 79.8817 173.244 79.9054 177.583C79.908 178.136 80.2929 178.585 80.8807 178.511C81.9562 178.376 81.6214 178.318 82.6547 178.005C82.9289 177.92 83.5351 176.291 83.5615 176.022C83.7723 173.835 84.2706 166.427 84.2759 164.208C84.2785 163.631 83.522 163.172 82.9368 163.219Z" fill="#F79884"/>
<path d="M76.819 183.606C77.3594 182.219 79.0332 181.418 79.0464 179.815C79.0464 179.789 79.0543 179.768 79.0648 179.75C79.0437 179.027 79.0437 178.297 79.1202 177.58C79.1597 177.219 79.2441 176.832 79.5947 176.65C79.8846 176.499 80.2879 176.549 80.5989 176.539C81.0365 176.526 82.655 176.494 83.0926 176.494C83.4616 176.494 83.6224 176.665 83.6277 176.76C83.7252 178.751 83.7226 180.741 83.6224 182.731C83.6093 183.168 83.5354 183.366 83.2349 183.572C82.8369 183.846 82.6761 184.131 82.4652 184.544C82.3677 184.737 82.2702 184.871 82.0725 184.966C81.5453 185.219 80.7571 185.19 80.1878 185.24C79.3232 185.319 78.4585 185.348 77.5913 185.346C76.5765 185.567 76.5712 184.247 76.819 183.606Z" fill="#1F2144"/>
<path d="M81.4844 180.667C81.6531 180.662 81.6768 180.923 81.5081 180.931C81.118 180.944 80.2006 180.96 79.8131 180.957C79.6444 180.957 79.6207 180.693 79.7894 180.693C80.1769 180.696 81.0942 180.68 81.4844 180.667ZM81.7532 177.696C81.9219 177.696 81.9299 177.96 81.7612 177.96C81.3526 177.957 80.422 177.965 80.0187 178.021C79.85 178.044 79.8448 177.781 80.0108 177.757C80.4141 177.699 81.3447 177.694 81.7532 177.696ZM81.6162 179.133C81.7849 179.133 81.7928 179.397 81.6241 179.397C81.2155 179.394 80.285 179.402 79.8817 179.457C79.713 179.481 79.7077 179.217 79.8738 179.194C80.2771 179.136 81.2076 179.13 81.6162 179.133Z" fill="#464A8A"/>
<path d="M76.737 183.893C76.7423 183.893 76.7476 183.893 76.7555 183.893C78.4715 184.046 79.8896 184.257 81.3341 183.727C82.1803 183.416 82.3121 182.894 82.9658 182.396C83.1819 182.23 83.4139 182.098 83.6538 181.982C83.6433 182.233 83.638 182.483 83.6248 182.733C83.6116 183.171 83.5378 183.369 83.2373 183.574C82.8393 183.848 82.6785 184.133 82.4676 184.547C82.3701 184.739 82.2726 184.874 82.0749 184.969C81.5477 185.222 80.7595 185.193 80.1902 185.243C79.3256 185.322 78.4609 185.351 77.5937 185.348C76.7107 185.543 76.5894 184.571 76.737 183.893Z" fill="#464A8A"/>
<path d="M45.7829 138.797C45.572 127.03 48.2502 115.524 51.1234 104.19C52.7788 97.6577 54.4868 91.1337 55.76 84.5121C55.7811 84.3987 55.8259 84.3091 55.8812 84.2379C56.0552 83.3575 56.2503 82.4798 56.4928 81.6257C56.8724 80.2893 57.5762 79.4589 58.9864 79.2085C60.8659 78.8737 62.8771 78.966 64.7829 78.8737C67.0525 78.763 69.3221 78.6523 71.5943 78.5416C71.7235 78.5363 71.8263 78.568 71.908 78.626C76.6475 78.2411 81.3975 78.0566 86.1528 78.075C86.1264 77.4187 87.1624 77.4055 87.2072 78.0698C88.1957 92.7891 89.1842 107.535 88.8837 122.299C88.5885 136.765 87.6553 151.236 86.9884 165.69C86.8935 167.756 86.7986 169.825 86.7011 171.892C86.6537 172.92 86.6536 173.967 86.5587 174.992C86.5166 175.445 86.4928 175.904 86.166 176.268C85.3067 177.225 82.9369 176.99 81.8034 177.032C79.7948 177.103 77.7941 177.008 75.7987 176.787C75.5377 176.758 75.2372 176.584 75.2609 176.273C75.738 170.028 74.2514 163.942 73.1285 157.845C72.5986 154.972 72.1637 152.083 72.0266 149.162C71.8737 145.925 72.0108 142.685 72.0082 139.448C72.0003 131.232 70.8167 122.122 70.1234 113.882C68.6025 117.153 67.0842 120.427 65.5632 123.698C63.6627 127.792 61.4168 131.891 60.1489 136.238C59.5374 138.336 59.2369 140.498 59.4926 142.68C59.7377 144.755 60.4046 146.779 60.4362 148.88C60.4652 150.665 59.917 152.167 58.9575 153.646C58.4804 154.379 57.932 155.125 57.7343 155.992C57.4523 157.244 58.0349 158.575 58.2853 159.788C59.3291 164.812 58.8889 169.965 58.4303 175.029C58.3986 175.371 58.172 175.712 57.7845 175.701C54.6951 175.622 51.6189 175.77 48.5533 176.152C48.2212 176.194 47.8574 175.835 47.8811 175.506C48.7852 163.201 46.0017 151.065 45.7829 138.797Z" fill="#464A8A"/>
<path d="M64.6878 9.7926C64.9356 9.56064 65.302 9.9402 65.0542 10.1722C64.7932 10.4173 64.5507 10.6783 64.3214 10.9498C64.3003 11.0842 64.2845 11.216 64.2687 11.3505C64.411 11.3795 64.5244 11.5271 64.4796 11.6826C64.3003 12.302 64.1817 12.9215 64.1158 13.5594C64.4032 14.2263 64.8723 14.9011 64.9909 15.2992C65.2598 16.1901 65.2835 17.1417 65.2598 18.0669C65.1965 20.5105 65.1597 22.8855 65.3442 25.329C65.36 25.5504 65.0305 25.6796 64.8908 25.5083C63.9524 24.359 63.4225 23.0094 62.8848 21.6413C62.3049 20.1678 61.7724 18.6495 61.6907 17.0521C61.5431 14.3054 62.7029 11.6615 64.6878 9.7926Z" fill="#9E4D4D"/>
<path d="M80.1615 13.3646C80.1826 13.3277 80.2063 13.3014 80.2327 13.2803C79.9005 12.7399 79.4709 12.2338 78.9147 11.762C78.6564 11.5432 79.0386 11.1794 79.2942 11.3955C81.4637 13.2328 81.9065 15.6606 81.5718 18.3677C81.2475 20.9905 80.7967 23.6317 79.0175 25.6931C78.8646 25.8697 78.5641 25.7142 78.572 25.498C78.7091 21.5361 78.1898 16.9495 80.1615 13.3646Z" fill="#9E4D4D"/>
<path d="M63.7127 18.3859C63.7311 16.7358 64.514 16.061 65.8504 15.3677C73.0651 11.6405 79.4125 15.2913 79.4362 16.3061C79.539 20.4341 79.9476 24.7808 77.9627 28.4738C76.476 31.2363 73.3866 34.2703 70.2077 32.8363C66.8916 31.3417 63.6072 27.5459 63.7127 18.3859Z" fill="#F79884"/>
<path d="M67.1287 37.2857L66.0453 23.5312C66.0479 23.0066 67.8879 24.8307 68.3281 25.1496C70.5634 26.7734 72.3532 27.2743 75.034 27.5616C75.1157 27.5695 75.1869 27.5932 75.2528 27.6196C75.6271 27.6196 76.0146 27.87 76.0119 28.3524C75.9908 31.4365 76.2518 37.3357 75.5506 40.3645C75.3687 41.15 75.1921 39.9664 74.3671 40.3197C73.8083 40.5595 72.7802 40.4515 72.1713 40.5016C71.391 40.5648 71.4807 40.4805 70.7005 40.5437C69.849 40.6149 68.1594 41.1184 67.4371 40.4304C66.7359 39.7608 67.1234 38.0949 67.1287 37.2857Z" fill="#F79884"/>
<path d="M74.9632 23.1203C74.9474 23.6106 75.1688 24.0139 75.4561 24.0245C75.7434 24.035 75.9912 23.6449 76.0097 23.1546C76.0281 22.6643 75.8041 22.261 75.5168 22.2505C75.2295 22.2399 74.979 22.63 74.9632 23.1203Z" fill="#1F2144"/>
<path d="M67.9432 22.9146C67.9405 23.4049 68.1699 23.8029 68.4599 23.8055C68.7498 23.8082 68.9871 23.4128 68.9897 22.9225C68.9924 22.4322 68.763 22.0341 68.473 22.0315C68.1857 22.0289 67.9485 22.4243 67.9432 22.9146Z" fill="#1F2144"/>
<path d="M66.6754 20.4894C66.6886 20.4683 66.9469 20.3576 66.9574 20.3576C67.7614 20.0755 68.8527 19.8673 69.6145 20.2679C70.0099 20.4762 70.3895 20.9744 69.8228 21.2011C69.3404 21.3961 68.6524 21.354 68.1462 21.3592C67.735 21.3619 67.2316 21.4251 66.8467 21.2354C66.3775 21.0034 66.3644 20.7292 66.6754 20.4894Z" fill="#9E4D4D"/>
<path d="M77.3803 21.1011C77.0112 21.3199 76.5025 21.2935 76.0939 21.3199C75.5878 21.3515 74.9051 21.4438 74.4095 21.2856C73.827 21.0985 74.1723 20.5766 74.5492 20.3393C75.2768 19.8833 76.3812 20.0124 77.2037 20.2339C77.2142 20.2339 77.4805 20.3235 77.4937 20.3446C77.8232 20.5634 77.8284 20.8375 77.3803 21.1011Z" fill="#9E4D4D"/>
<path d="M69.3774 28.0993C71.8948 29.0509 74.1722 28.015 74.3067 28.0598C74.362 28.0782 74.42 28.1231 74.4068 28.1837C74.1696 29.275 72.9149 29.8707 71.9448 29.9076C70.9353 29.9471 69.5329 29.325 69.2192 28.2654C69.1929 28.1758 69.2772 28.0598 69.3774 28.0993Z" fill="white"/>
<path d="M71.307 26.9474C72.0002 27.132 72.6514 26.9185 72.7384 26.1408C72.7805 25.7797 72.6698 25.3131 72.6355 24.9494C72.5617 24.1718 72.4774 23.3942 72.3878 22.6192C72.3667 22.4505 72.6303 22.4426 72.6514 22.6086C72.7278 23.2624 72.8016 23.9161 72.8649 24.5698C72.9202 25.1444 73.0837 25.8245 73.002 26.3992C72.8886 27.219 71.9106 27.3771 71.2464 27.2005C71.0829 27.1609 71.1409 26.9026 71.307 26.9474Z" fill="#DB745E"/>
<path d="M66.7308 10.5122C67.7219 10.42 68.3809 10.6467 69.3878 10.3013C69.9625 10.1036 70.4158 9.87433 71.0511 9.86379C72.6722 9.83479 74.3408 10.6493 75.8328 11.1554C75.8934 11.1765 75.9356 11.2134 75.9646 11.2556C77.7518 11.2793 79.3966 12.2045 80.0872 13.8942C80.5986 15.1436 80.3482 16.575 80.4852 17.8798C80.5696 18.6811 80.4351 19.2057 79.6786 19.6512C79.5416 19.7329 79.4124 19.6802 79.3386 19.5853C78.4661 19.7408 77.4592 19.8199 77.0242 18.9526C76.4417 17.7902 77.2456 14.656 75.2634 14.3977C75.2634 14.4794 75.2265 14.5637 75.1316 14.6191C74.2011 15.1726 74.0324 15.8764 73.7662 16.7937C73.6686 17.1259 73.5711 17.4343 73.2996 17.6768C72.9964 17.951 72.7302 17.9536 72.3401 18.0406C71.7338 18.175 71.1829 18.4439 70.6109 18.6231C70.1259 18.776 69.8201 18.7892 69.2929 18.7417C68.2069 18.6416 67.5663 18.7075 66.5647 19.0633C65.7739 19.3427 64.8276 19.6037 64.071 19.0871C63.1933 18.4834 63.072 17.2419 63.2539 16.0161C62.7162 13.6069 63.8233 10.7811 66.7308 10.5122Z" fill="#9E4D4D"/>
<path d="M64.4403 10.1645C65.2548 8.97307 66.3303 8.80434 67.4927 8.0979C68.5814 7.43627 69.4144 6.91437 70.7508 7.19642C71.4204 7.33876 72.024 7.64452 72.5828 8.032C73.2418 8.48803 73.7848 9.24718 74.5466 9.51078C74.9815 9.21819 75.4428 8.96251 76.0175 8.89925C77.259 8.76218 78.0656 9.30519 78.7905 10.2541C80.1665 12.0492 81.2763 14.5587 79.468 16.4671C79.3757 16.5647 79.265 16.562 79.1754 16.5119C79.1279 16.5146 79.0778 16.5093 79.0278 16.4777C77.4488 15.505 75.8514 14.2582 74.0959 13.6308C72.2217 12.9586 70.163 13.0825 68.3626 13.905C67.1342 14.4664 63.7576 16.6016 63.4439 13.9919C63.2937 12.7346 63.7312 11.1978 64.4403 10.1645Z" fill="#9E4D4D"/>
<path d="M62.9506 22.3609C63.5411 21.6834 64.7115 22.1895 64.9962 22.9092C65.0568 23.0647 64.9619 23.1754 64.8354 23.2097C64.9751 23.468 65.0726 23.7764 65.1174 24.0927C65.2545 24.4591 65.3257 24.8255 65.2888 25.0944C65.2993 25.2288 65.3046 25.3606 65.3072 25.4977C65.3784 25.6426 65.4153 25.7956 65.3679 25.9458C65.0595 26.9106 63.723 25.7296 63.4594 25.3395C62.9875 24.641 62.2837 23.1253 62.9506 22.3609Z" fill="#F79884"/>
<path d="M80.7488 22.4533C80.1847 21.7547 78.9959 22.216 78.6848 22.9251C78.6163 23.0806 78.7086 23.194 78.8351 23.2309C78.6875 23.4839 78.5768 23.7897 78.5188 24.1034C78.3685 24.4645 78.2842 24.8283 78.3105 25.0998C78.2947 25.2316 78.2842 25.366 78.2789 25.5004C78.2025 25.6428 78.1603 25.7957 78.2025 25.9459C78.474 26.9212 79.8552 25.793 80.132 25.4108C80.6275 24.7307 81.3867 23.2414 80.7488 22.4533Z" fill="#F79884"/>
<path d="M62.8011 20.231C62.8406 19.7434 62.9092 19.029 63.1306 18.5915C63.4943 17.8771 64.6726 18.4122 64.9916 18.9684C65.039 18.9447 65.0918 18.9209 65.1471 18.8998C65.3053 18.8419 65.3712 19.0976 65.213 19.1556C64.8572 19.2874 64.699 19.7513 64.6911 20.0808C64.6832 20.3233 64.7227 20.579 64.7517 20.8136C64.786 21.0956 64.8308 21.3777 64.8598 21.6597C64.8993 22.0604 65.0523 22.9223 64.7043 23.2466C64.1613 23.7553 63.2835 22.1474 63.1122 21.781C62.8802 21.296 62.7589 20.7661 62.8011 20.231Z" fill="#9E4D4D"/>
<path d="M80.3456 21.0931C80.161 21.4516 79.2226 23.0253 78.6981 22.4981C78.3633 22.1607 78.5452 21.3066 78.6032 20.906C78.6427 20.6239 78.6981 20.3445 78.7429 20.0651C78.7798 19.8305 78.8272 19.5748 78.8299 19.3349C78.8325 19.0054 78.6928 18.5362 78.3422 18.3912C78.1867 18.328 78.2605 18.0723 78.4161 18.1382C78.4714 18.1619 78.5215 18.1856 78.5689 18.2146C78.9063 17.6716 80.1057 17.1813 80.4405 17.9088C80.6461 18.3543 80.6883 19.0687 80.7093 19.559C80.7331 20.0914 80.5907 20.6186 80.3456 21.0931Z" fill="#9E4D4D"/>
<path d="M63.8311 22.063C63.8522 22.0419 63.8786 22.0261 63.9128 22.0235C64.7247 21.9523 65.5102 23.9873 65.7263 24.583C66.1244 25.6743 66.2957 26.8341 66.6806 27.9307C67.076 29.0484 67.7007 30.1159 68.8025 30.6563C70.0704 31.2784 71.652 31.3548 73.0069 31.0148C75.6561 30.3479 77.1137 28.1495 77.8966 25.677C78.0838 25.0865 78.213 24.4855 78.3474 23.8818C78.4555 23.3995 78.6821 21.9787 78.9616 21.5596C79.2252 21.1642 79.8604 20.948 80.0871 21.5068C80.095 21.5279 80.0977 21.549 80.0977 21.5675C80.1662 21.5964 80.2163 21.6729 80.1662 21.7546C79.5784 22.7537 79.4413 24.8493 79.2436 25.9695C79.038 27.1267 78.7771 28.276 78.4581 29.4069C78.2051 30.3031 77.952 31.231 77.3668 31.9743C76.8317 32.6518 76.0989 33.1473 75.3055 33.4715C73.3654 34.2623 71.4174 34.4363 69.4167 34.0778C68.5257 33.9196 67.4318 33.2817 66.7465 32.6438C66.1455 32.0824 65.8028 31.2995 65.5498 30.5324C64.7511 28.102 63.897 24.6753 63.6096 22.1395C63.5938 22.0103 63.752 21.9866 63.8311 22.063Z" fill="#9E4D4D"/>
<path d="M66.3747 100.563C67.5345 103.66 68.6917 106.757 69.8515 109.854C69.9122 110.013 69.6591 110.086 69.5985 109.928C68.4387 106.831 67.2815 103.734 66.1217 100.636C66.0637 100.478 66.3167 100.404 66.3747 100.563Z" fill="#1F2144"/>
<path d="M81.2475 82.1158C81.4215 83.6446 81.9197 85.1155 82.7315 86.4282C83.4907 87.6592 84.7507 89.3146 86.2532 89.6046C86.4193 89.6362 86.3534 89.8919 86.1873 89.8603C84.6611 89.565 83.4143 87.9782 82.6156 86.7419C81.7167 85.3474 81.1684 83.7685 80.9839 82.1237C80.9655 81.9523 81.2291 81.9497 81.2475 82.1158Z" fill="#1F2144"/>
<path d="M56.5061 89.0038C59.577 88.582 60.6182 85.2844 60.8475 82.6326C60.8607 82.4666 61.127 82.4586 61.1111 82.6273C60.8686 85.4426 59.7457 88.8219 56.5114 89.2674C56.3427 89.2911 56.34 89.0275 56.5061 89.0038Z" fill="#1F2144"/>
<path d="M54.7188 130.552C55.8206 133.169 56.9225 135.784 58.0243 138.402C58.0902 138.557 57.8372 138.631 57.7713 138.476C56.6694 135.858 55.5676 133.243 54.4657 130.626C54.3998 130.47 54.6555 130.396 54.7188 130.552Z" fill="#1F2144"/>
<path d="M56.3979 138.584C56.9067 139.891 57.4153 141.201 57.9267 142.509C57.9874 142.667 57.7343 142.741 57.6737 142.582C57.1649 141.275 56.6562 139.965 56.1448 138.657C56.0842 138.499 56.3373 138.425 56.3979 138.584Z" fill="#1F2144"/>
<path d="M20.1583 48.2829C20.5168 48.0931 20.8753 47.9007 21.2364 47.7109C21.3128 47.7583 21.3867 47.8058 21.4684 47.8453C23.7248 48.9814 25.6358 50.5578 28.0899 51.3169C28.1321 51.3301 28.1743 51.338 28.2164 51.3486C30.5941 54.807 35.1306 59.1115 43.2073 57.746C48.0285 56.9315 51.4262 45.8604 55.7756 41.2396C57.6128 39.2863 60.1038 38.05 63.2934 37.7522C64.1184 37.5808 64.9593 37.4754 65.8081 37.4253C65.7897 36.7162 66.2114 35.7409 66.3695 35.3429C66.7755 34.3254 67.4107 34.5916 68.3412 34.9449C69.4009 35.3482 70.3736 35.9044 71.2698 36.5818C72.3875 35.538 74.2907 35.0134 75.7484 34.879C77.2166 34.7445 77.2588 36.8085 77.525 37.913C77.5777 37.9209 77.6305 37.9314 77.6832 37.942C77.583 37.8682 77.5566 37.826 77.633 37.826C79.6548 37.8286 81.4447 38.2636 83.05 39.0201C83.7116 42.3572 84.4892 45.6733 85.3406 49.0052C86.7535 54.5275 89.2683 52.5822 89.5767 54.1822C89.4739 56.0986 89.2261 76.5247 89.2103 77.2865C89.1813 78.6335 89.5688 80.8372 88.7543 82.0102C87.9213 83.2096 85.8204 83.6261 84.4919 83.8317C80.2954 84.4801 72.8066 83.3466 68.6048 83.2412C66.3801 83.1832 64.1738 83.3203 61.9622 83.5391C60.3912 83.6946 58.6778 83.8185 57.1938 83.1542C53.8619 81.6622 54.1307 77.4394 54.0411 74.3949C53.9699 72.0014 53.8988 69.6106 53.8276 67.2171C51.2734 69.1625 48.2999 70.1219 45.0076 70.3328C26.2052 71.5295 21.8769 54.6093 19.9079 48.8707C19.8314 48.6599 19.9659 48.3857 20.1583 48.2829Z" fill="#F5E4D5"/>
<path d="M105.999 61.2336C105.669 65.0927 103.402 80.3049 103.334 81.354C103.297 81.9233 103.426 82.6667 103.036 83.1227C102.954 83.2202 76.8371 84.069 74.6229 84.0084C74.0614 84.0558 73.6871 83.9425 73.724 83.5998C74.4964 76.5433 75.2476 68.986 75.7775 62.0244C75.7854 61.9189 75.8486 61.745 75.9093 61.687C75.9567 61.5736 76.2255 61.571 76.3837 61.5631C86.6086 61.0754 95.3812 60.8751 105.619 60.8777C105.801 60.8777 106.017 61.0306 105.999 61.2336Z" fill="#1F2144"/>
<path d="M90.1277 70.4833C92.3261 70.3015 92.6134 73.715 90.4123 73.8995C88.2139 74.0814 87.9267 70.6652 90.1277 70.4833Z" fill="#797A8A"/>
<path d="M85.3276 83.7686C85.3487 83.7686 85.3697 83.7634 85.3908 83.7607C85.6518 83.8767 85.947 83.9004 86.3977 83.65C87.1938 83.2045 88.0769 82.39 88.8729 81.9129C88.5698 81.8048 88.2482 81.7442 87.9161 81.6941C87.4389 81.623 86.7958 81.6282 86.3688 81.3699C85.976 81.1326 86.0603 80.8691 86.4847 80.7926C87.5339 80.6081 88.7385 80.674 89.7428 81.0378C89.9273 81.1037 90.6496 81.3672 90.9527 81.6677C91.588 81.3066 92.2417 80.9798 92.9139 80.6819L92.9218 80.6766C92.9534 80.6635 92.9824 80.6476 93.014 80.6345C93.3409 80.4921 93.5834 80.8796 93.4859 81.159C93.4938 81.1564 93.4991 81.1564 93.507 81.1537C93.7943 81.0957 93.9867 81.304 94.0025 81.5201C94.1185 81.4964 94.2372 81.4727 94.3531 81.4542C94.5983 81.4121 94.7749 81.5544 94.8328 81.7284C95.1782 81.7653 95.4075 82.274 95.0253 82.4506C94.6984 82.6009 94.3716 82.7538 94.0447 82.904C94.0552 82.9014 94.0658 82.8987 94.0764 82.8987C94.419 82.7749 94.7565 82.6404 95.0886 82.4823C95.5446 82.2661 95.961 82.9383 95.4998 83.1571C95.1623 83.3179 94.8171 83.4549 94.4717 83.5841C94.4586 83.592 94.4454 83.6026 94.427 83.6078C94.3953 83.621 94.3637 83.6342 94.332 83.6474C94.332 83.6474 94.332 83.6474 94.332 83.65C94.3294 83.65 94.3268 83.65 94.3215 83.6526C93.0061 84.2378 88.6172 85.6164 87.9161 85.967C87.0752 86.3861 86.5559 86.4336 85.7151 85.9617C85.2142 85.6823 83.8198 84.2352 83.5536 83.8714C83.543 83.8583 83.5377 83.8451 83.5298 83.8293C84.1282 83.8134 84.7266 83.7818 85.3276 83.7686Z" fill="#F79884"/>
<path d="M76.8581 45.7527C76.8607 43.4146 77.0374 41.087 77.3484 38.7726C76.7712 38.5407 77.0795 37.5364 77.7913 37.6392C82.1116 38.2666 86.2369 39.9404 89.7717 42.5078C93.4858 45.2044 96.2114 48.7604 98.3966 52.7644C100.84 57.2429 102.656 62.043 104.125 66.9222C105.414 71.203 107.014 73.9234 104.868 78.2279C102.569 82.833 97.5716 84.8732 93.0457 86.6156C92.7346 86.7342 92.3867 86.4996 92.2944 86.207C91.9623 85.179 91.1293 81.5861 90.8341 80.8797C90.407 79.8648 90.9289 79.4905 91.8041 78.8157C92.7161 78.1119 97.9934 75.8134 94.0895 67.4362C92.2338 63.4506 90.0749 59.5652 86.8274 57.4828C85.1957 56.4363 83.4533 55.5796 81.7847 54.599C80.3982 53.7845 78.8667 52.8856 77.9125 51.5545C76.7421 49.9175 76.8581 47.6664 76.8581 45.7527Z" fill="#F5E4D5"/>
<path d="M77.1641 47.648C79.0752 47.6006 80.9415 47.1709 82.8183 46.8441C84.6819 46.5198 86.5613 46.2773 88.446 46.1192C90.1542 45.9768 91.8649 45.9057 93.5756 45.9004C93.6574 45.9874 93.7338 46.077 93.8129 46.1666C92.4923 46.164 91.169 46.2009 89.851 46.28C87.7739 46.4065 85.702 46.6358 83.6459 46.9706C81.8192 47.2658 80.0056 47.7008 78.1578 47.8563C77.7308 47.8932 77.3038 47.909 76.8768 47.9116C76.8715 47.8247 76.8689 47.7377 76.8662 47.6507C76.9664 47.648 77.0666 47.6507 77.1641 47.648ZM105.92 74.2266C105.92 74.3135 105.915 74.4032 105.912 74.4902C102.433 74.1923 98.9478 73.9208 95.4604 73.7495C95.4709 73.6625 95.4788 73.5728 95.4867 73.4832C98.9688 73.6546 102.446 73.9287 105.92 74.2266ZM100.838 57.7913C100.875 57.8783 100.914 57.9679 100.951 58.0549C97.9066 58.1234 94.8357 59.0802 91.9177 59.8869C91.2718 60.0661 90.6234 60.2322 89.9723 60.3851C89.9117 60.3086 89.8484 60.2348 89.7851 60.161C90.1937 60.0661 90.6049 59.9686 91.0135 59.8605C94.1898 59.017 97.527 57.8888 100.838 57.7913Z" fill="#F5E4D5"/>
<path d="M78.1763 47.8588C74.4069 48.1778 70.7403 47.0891 67.0552 46.5013C63.2278 45.8897 59.345 45.7737 55.478 45.5866C54.5844 45.5444 53.6908 45.4943 52.7972 45.439C52.8499 45.352 52.9 45.2677 52.9527 45.1807C57.2573 45.4522 61.5934 45.4943 65.8664 46.0637C69.6332 46.5645 73.3551 47.7455 77.1826 47.6506C79.0937 47.6031 80.9599 47.1734 82.8367 46.8466C83.4694 46.7359 84.1047 46.6383 84.74 46.5487C84.761 46.6331 84.7821 46.7201 84.8032 46.8044C84.4236 46.8598 84.044 46.9125 83.6645 46.9731C81.8377 47.2683 80.0242 47.7033 78.1763 47.8588Z" fill="#F4E3D5"/>
<path d="M68.6469 74.3318C70.6925 74.4267 72.7353 74.3345 74.7729 74.1763C74.7519 74.2633 74.7386 74.3556 74.7307 74.4478C73.3758 74.5533 72.021 74.6297 70.6608 74.6376C65.0119 74.6666 59.4975 73.3645 53.9909 72.2415C53.9883 72.1519 53.9856 72.0623 53.983 71.9727C58.8411 72.9638 63.6808 74.1025 68.6469 74.3318Z" fill="#F4E3D5"/>
<path d="M47.3617 57.4406C52.2936 57.7121 57.2466 57.604 62.1653 58.1127C66.9575 58.6083 71.6522 59.7312 76.418 60.4113C78.851 60.7593 81.3077 60.986 83.7697 60.9359C85.7019 60.8963 87.5946 60.6433 89.4688 60.2347C89.4661 60.3243 89.4661 60.414 89.4635 60.5062C88.0743 60.812 86.672 61.0387 85.2433 61.1362C82.8656 61.2996 80.4748 61.1705 78.1103 60.8963C73.4156 60.3507 68.8053 59.2515 64.1238 58.6136C59.1576 57.9388 54.1467 57.9862 49.1489 57.7885C47.4777 57.7226 45.8065 57.6277 44.1432 57.4643C44.2908 57.3984 44.4358 57.3246 44.5781 57.2402C45.5033 57.3246 46.4312 57.3905 47.3617 57.4406Z" fill="#F5E4D5"/>
<path d="M24.5893 55.2713C26.2447 55.353 27.879 55.0314 29.5318 55.0657C30.37 55.0841 31.2004 55.1843 32.0176 55.3609C32.2126 55.5059 32.4155 55.6456 32.6238 55.7827C31.5009 55.4795 30.3463 55.3161 29.1733 55.324C27.4731 55.3346 25.8098 55.6324 24.107 55.5006C23.4665 55.4505 22.8312 55.3688 22.2012 55.2634C22.1617 55.1685 22.1221 55.0736 22.0825 54.9761C22.9102 55.1237 23.7432 55.2291 24.5893 55.2713Z" fill="#F5E4D5"/>
<path d="M94.2503 83.2546C94.759 83.2546 94.759 84.0454 94.2503 84.0454C93.7389 84.0454 93.7389 83.2546 94.2503 83.2546Z" fill="#1F2144"/>
<path d="M70.8693 72.1809C71.4598 70.4966 71.8314 68.8385 71.842 67.0461C71.8525 65.3248 71.6548 63.6114 71.6048 61.8928C71.5125 58.5662 71.7998 55.2475 71.9658 51.9288C72.1556 48.0776 72.1636 44.1922 71.2199 40.4306C71.1777 40.2672 71.4334 40.196 71.473 40.3595C73.1468 47.0285 71.8393 53.8873 71.8525 60.6512C71.8578 63.9725 72.5405 67.3808 71.6443 70.6389C71.1935 72.2785 70.4739 73.8337 70.0917 75.4944C69.6884 77.2526 69.6278 79.0793 69.8993 80.8612C70.0258 81.6889 70.2156 82.514 70.4186 83.3364C70.3263 83.3311 70.2367 83.3258 70.1444 83.3179C69.9863 82.6774 69.836 82.0395 69.7226 81.399C69.4432 79.8411 69.3905 78.2569 69.6067 76.6858C69.8228 75.1253 70.35 73.665 70.8693 72.1809Z" fill="#DBC6B6"/>
<path d="M56.7012 60.6589C56.7855 60.013 56.8778 59.3672 56.9753 58.7214C57.2179 57.1609 57.5105 55.6083 57.8479 54.0663C57.8611 54.0109 57.919 53.9688 57.9744 53.9688C58.1009 53.9688 58.2274 53.9714 58.354 53.9714C58.5227 53.974 58.5227 54.2376 58.354 54.235C57.9006 54.2324 57.9085 55.0284 57.8373 55.3869C57.7266 55.9299 57.6238 56.4755 57.5237 57.0212C57.3339 58.0703 57.1678 59.1247 57.0254 60.1844C56.9516 60.7247 56.8172 61.3126 56.8541 61.8609C56.8989 62.5436 57.3523 63.0839 57.9243 63.4187C58.7968 63.9301 59.9092 64.0223 60.8845 64.2069C61.9389 64.4072 62.9933 64.6181 64.0503 64.8052C64.8385 64.9449 65.4895 64.9081 65.7373 64.0276C65.8849 63.5057 65.9877 62.9653 66.1037 62.4355C66.3278 61.4127 66.5307 60.3874 66.7126 59.3567C66.7996 58.8611 66.8813 58.3656 66.9604 57.87C67.0421 57.3534 67.2372 56.7233 67.1265 56.2014C66.9551 55.3948 66.1801 55.4159 65.5159 55.321C64.9281 55.2367 64.3429 55.1523 63.7551 55.068C62.5399 54.894 61.322 54.7174 60.1069 54.5434C59.9408 54.5197 60.012 54.2666 60.178 54.2903C61.5197 54.4828 62.8615 54.6752 64.2032 54.8676C64.8727 54.9652 65.5476 55.0495 66.2171 55.1576C66.5835 55.2182 66.9525 55.292 67.1924 55.603C67.6932 56.2541 67.2899 57.4799 67.1766 58.1889C66.9657 59.5122 66.7205 60.8302 66.4385 62.1403C66.3067 62.7545 66.1696 63.3686 66.0194 63.9775C65.9298 64.3466 65.8349 64.7525 65.4975 64.9792C64.7383 65.4827 63.3781 64.9476 62.5873 64.8C61.3089 64.5574 59.9751 64.3993 58.723 64.0356C57.9058 63.7983 57.065 63.3317 56.7302 62.5067C56.4903 61.9136 56.6221 61.2704 56.7012 60.6589Z" fill="#DBC6B6"/>
<path d="M65.7925 37.4204C65.7925 37.3808 65.7952 37.3413 65.7978 37.3018C66.2459 38.1242 66.7019 38.9413 67.1843 39.7427C67.3372 39.9984 67.4954 40.4122 67.7142 40.6125C67.9962 40.8708 68.2598 40.5335 68.5287 40.3094C69.0506 39.8771 69.4908 39.3631 69.8651 38.8016C69.96 38.6619 70.1867 38.7937 70.0918 38.9334C69.6622 39.5766 69.1534 40.1486 68.5445 40.631C68.2782 40.8419 67.9646 41.1925 67.6298 40.9605C67.4189 40.8155 67.2159 40.312 67.0841 40.0932C66.8416 39.6952 66.6044 39.2919 66.3724 38.8886C66.0956 38.4089 65.8268 37.9239 65.5632 37.4388C65.6397 37.4309 65.7161 37.4256 65.7925 37.4204ZM77.6175 37.821C77.6544 37.821 77.6887 37.8237 77.7256 37.8237C77.7019 37.8579 77.6808 37.8922 77.657 37.9265C77.5701 37.8606 77.5464 37.821 77.6175 37.821ZM72.3798 38.9545C72.9017 39.3446 73.4369 39.711 73.9957 40.0458C74.4016 40.2883 74.8866 40.7154 75.398 40.3753C75.63 40.2224 75.8224 39.9114 75.999 39.6978C76.5209 39.0652 77.0086 38.4089 77.4673 37.7314C77.4804 37.7921 77.4936 37.8527 77.5068 37.9107C77.5542 37.9186 77.6017 37.9265 77.6518 37.937C77.3987 38.3087 77.1404 38.6724 76.8689 39.0309C76.4682 39.5608 76.0412 40.2488 75.4929 40.6363C75.0659 40.9368 74.7047 40.7549 74.2883 40.5229C73.5686 40.1196 72.8833 39.6636 72.2217 39.1707C72.0873 39.0626 72.2454 38.8517 72.3798 38.9545Z" fill="#DBC6B6"/>
<path d="M83.5482 44.5981C83.224 46.6884 83.9541 48.6179 84.7475 50.5158C85.9258 53.3258 87.1911 56.0962 88.5381 58.8271C88.3641 58.6636 88.1875 58.5055 88.0056 58.3552C86.6507 55.5848 85.3776 52.7722 84.2151 49.9175C83.4533 48.0486 82.9419 46.1533 83.3636 44.1368C83.6905 42.5763 84.4787 41.1476 85.6121 40.0378C85.6965 40.0774 85.7808 40.1222 85.8652 40.1617C84.6368 41.3426 83.8118 42.9005 83.5482 44.5981Z" fill="#DBC6B6"/>
<path d="M53.1291 67.7077C53.1765 67.5891 53.2266 67.4678 53.2767 67.3492C53.7828 66.1419 54.3338 64.9452 54.7186 63.6905C55.1667 62.2222 55.3196 60.6986 55.404 59.1724C55.686 54.0929 56.1473 49.0872 57.8712 44.2581C58.6304 42.1335 59.6083 40.0985 60.8235 38.2058C60.9474 38.1716 61.074 38.1373 61.2031 38.1057C58.7121 41.9147 57.2413 46.293 56.4636 50.7689C56.0155 53.3443 55.8257 55.9354 55.7018 58.5424C55.6386 59.8577 55.5595 61.1784 55.3011 62.47C55.0507 63.7168 54.6026 64.8977 54.1097 66.0655C53.9173 66.5189 53.7222 66.9723 53.5298 67.4283C53.3953 67.5258 53.2609 67.6181 53.1291 67.7077Z" fill="#DBC6B6"/>
<path d="M59.6871 53.8002C60.4357 53.8556 61.1764 53.9716 61.9092 54.1323C64.6295 56.1172 67.305 59.4386 70.2152 56.1146C71.7414 54.3722 71.9997 51.6888 72.034 49.4746C72.0709 46.9994 71.6465 44.5532 71.093 42.1492C71.0877 42.1255 71.0903 42.107 71.0903 42.086C70.6343 41.6668 70.1756 41.2503 69.7275 40.826C69.485 40.5966 69.1423 40.3541 69.137 39.9825C69.1318 39.6029 69.4718 39.3155 69.7038 39.044C70.1809 38.4878 70.6606 37.9343 71.1378 37.3781C71.1826 37.1936 71.4092 37.0565 71.5647 37.241C71.9338 37.676 72.2923 38.1188 72.635 38.5748C72.8458 38.8569 73.3125 39.3076 73.3309 39.682C73.3441 39.9745 73.1226 40.1907 72.9618 40.4068C72.6139 40.8734 72.2607 41.3347 71.9074 41.796C73.7078 45.9292 74.7411 50.3603 74.8413 54.8757C74.8808 56.6471 74.8202 58.6372 73.721 60.1266C72.7299 61.4656 71.2748 62.1721 69.6985 62.4963C67.8191 62.8838 65.8579 62.2564 64.3422 61.1124C62.6947 59.8709 62.041 58.1733 60.8838 56.5443C60.13 55.482 59.1678 55.0602 58.1503 54.33C58.0765 54.2773 58.0106 54.2246 57.9473 54.1719C58.2584 53.5261 58.8858 53.7422 59.6871 53.8002Z" fill="#FD7722"/>
<path d="M13.9186 36.2209C15.2129 39.6372 17.2532 42.774 19.9603 45.4284C23.5057 48.9079 27.8893 51.2697 32.663 52.3347C32.6235 52.8803 32.6841 53.4391 32.8555 53.9584C27.6257 52.8935 22.815 50.3577 18.9481 46.5619C16.0432 43.7097 13.8606 40.3383 12.4899 36.6585C13.0013 36.6137 13.4837 36.4608 13.9186 36.2209Z" fill="#1F2144"/>
<path d="M19.4255 152.67C19.4334 152.454 19.4782 152.283 19.5441 152.156C19.6337 151.869 19.8024 151.727 20.0344 151.74C23.6483 151.924 34.5955 151.858 38.2095 151.671C38.4388 151.661 38.6075 151.803 38.6997 152.088C38.7656 152.214 38.813 152.383 38.8183 152.602C38.9422 156.326 37.4186 175.527 36.6621 178.432C36.0058 180.957 34.8169 182.52 33.2933 182.897C31.5114 183.337 29.6478 183.253 27.8395 183.147C27.8026 183.168 27.7631 183.182 27.7183 183.184C25.7571 183.3 23.7116 183.445 21.7609 182.963C20.2373 182.586 19.0485 181.023 18.3922 178.498C17.6356 175.595 19.3016 156.392 19.4255 152.67Z" fill="#1F2144"/>
<path d="M20.9493 130.264C22.7997 134.543 25.1088 141.649 21.8745 144.296C19.0698 146.589 8.9582 141.958 4.90407 137.969C1.46149 134.582 -1.05585 129.239 0.441387 124.381C1.80419 119.966 6.88895 117.654 11.154 119.193C13.3365 119.981 15.1607 121.581 16.6474 123.321C18.4214 125.388 19.8712 127.768 20.9493 130.264Z" fill="#78ADD9"/>
<path d="M38.9263 123.772C37.9589 128.332 35.7341 135.465 31.564 135.753C27.9501 136 22.3829 126.374 21.3813 120.775C20.5325 116.022 21.5711 110.205 25.6015 107.11C29.2681 104.295 34.7536 105.355 37.3421 109.077C38.668 110.982 39.2268 113.342 39.4351 115.622C39.6828 118.332 39.4878 121.113 38.9263 123.772Z" fill="#78ADD9"/>
<path d="M31.0633 119.128C30.6626 114.749 30.2093 110.376 29.7559 106.006C29.7374 105.837 30.001 105.84 30.0195 106.006C31.6274 121.487 33.2406 137.055 32.4867 152.641C32.2785 156.941 31.8857 161.229 31.2742 165.492C31.2505 165.658 30.9974 165.587 31.0211 165.421C33.2222 150.074 32.4683 134.508 31.0633 119.128Z" fill="#1F2144"/>
<path d="M2.80316 121.205C13.3102 131.003 24.6132 141.736 27.6472 156.398C28.5303 160.671 28.7069 165.049 28.7122 169.401C28.7122 169.57 28.4486 169.57 28.4486 169.401C28.4433 165.489 28.3062 161.559 27.6287 157.697C27.0067 154.154 25.8864 150.73 24.3443 147.483C21.2602 140.982 16.7 135.328 11.7233 130.18C8.78948 127.146 5.70274 124.268 2.61865 121.392C2.49213 121.276 2.67927 121.089 2.80316 121.205Z" fill="#1F2144"/>
</svg>
