<svg xmlns="http://www.w3.org/2000/svg" viewBox="0 0 252.77 252.77"><defs><style>.abbdab4d-b6be-4270-989e-8de484577f61{fill:#fdeb00;}.b93c9adb-6ef7-4f65-8010-20ae1c378ce3{fill:#92d6e3;}.a7d9b7ae-82b0-4dfd-a75b-b39f42f44a68{fill:#f26922;}.fcb9d36a-768e-4135-8f16-0f5b97e752d5{fill:#2ab1e5;}</style></defs><g id="e4b9feed-98b3-48a7-8a99-3c631d74e8e0" data-name="Слой 2"><g id="b0ea7863-2f46-476f-9b14-1a3d1947f130" data-name="Слой 1"><path class="abbdab4d-b6be-4270-989e-8de484577f61" d="M208.32,30.15,191.46,47A102.64,102.64,0,0,0,47,191.46L30.16,208.32A126.39,126.39,0,0,1,208.32,30.15Z"/><path class="b93c9adb-6ef7-4f65-8010-20ae1c378ce3" d="M252.77,126.38A126.38,126.38,0,0,1,44.45,222.61l16.86-16.86A102.64,102.64,0,0,0,205.76,61.31l16.86-16.86A125.86,125.86,0,0,1,252.77,126.38Z"/><path class="a7d9b7ae-82b0-4dfd-a75b-b39f42f44a68" d="M126.39,37a89.37,89.37,0,1,0,89.36,89.36A89.36,89.36,0,0,0,126.39,37Zm0,161.36a72,72,0,1,1,72-72A72,72,0,0,1,126.39,198.38Z"/><path class="fcb9d36a-768e-4135-8f16-0f5b97e752d5" d="M131.39,126.18V72.77h-10v51.54l-31.3,31.3,7.07,7.07,32.6-32.6a5,5,0,0,0,1.65-3.7C131.41,126.31,131.39,126.25,131.39,126.18Z"/></g></g></svg>