<svg width="22" height="20" viewBox="0 0 22 20" fill="none" xmlns="http://www.w3.org/2000/svg">
<path d="M11.727 1.35368L1.836 0.0176026C1.377 -0.0464012 0.909 0.0656053 0.558 0.329621C0.207 0.601637 0 0.993659 0 1.40168V18.2587C0 18.6987 0.405 19.0587 0.9 19.0587H3.825V14.8585C3.825 14.0824 4.527 13.4584 5.4 13.4584H7.65C8.523 13.4584 9.225 14.0824 9.225 14.8585V19.0587H13.05V2.73776C13.05 2.04972 12.492 1.46569 11.727 1.35368ZM4.95 11.6583H3.6C3.2274 11.6583 2.925 11.3895 2.925 11.0582C2.925 10.727 3.2274 10.4582 3.6 10.4582H4.95C5.3226 10.4582 5.625 10.727 5.625 11.0582C5.625 11.3895 5.3226 11.6583 4.95 11.6583ZM4.95 9.25814H3.6C3.2274 9.25814 2.925 8.98933 2.925 8.65811C2.925 8.32689 3.2274 8.05807 3.6 8.05807H4.95C5.3226 8.05807 5.625 8.32689 5.625 8.65811C5.625 8.98933 5.3226 9.25814 4.95 9.25814ZM4.95 6.858H3.6C3.2274 6.858 2.925 6.58919 2.925 6.25797C2.925 5.92675 3.2274 5.65793 3.6 5.65793H4.95C5.3226 5.65793 5.625 5.92675 5.625 6.25797C5.625 6.58919 5.3226 6.858 4.95 6.858ZM4.95 4.45786H3.6C3.2274 4.45786 2.925 4.18905 2.925 3.85783C2.925 3.52661 3.2274 3.25779 3.6 3.25779H4.95C5.3226 3.25779 5.625 3.52661 5.625 3.85783C5.625 4.18905 5.3226 4.45786 4.95 4.45786ZM9.45 11.6583H8.1C7.7274 11.6583 7.425 11.3895 7.425 11.0582C7.425 10.727 7.7274 10.4582 8.1 10.4582H9.45C9.8226 10.4582 10.125 10.727 10.125 11.0582C10.125 11.3895 9.8226 11.6583 9.45 11.6583ZM9.45 9.25814H8.1C7.7274 9.25814 7.425 8.98933 7.425 8.65811C7.425 8.32689 7.7274 8.05807 8.1 8.05807H9.45C9.8226 8.05807 10.125 8.32689 10.125 8.65811C10.125 8.98933 9.8226 9.25814 9.45 9.25814ZM9.45 6.858H8.1C7.7274 6.858 7.425 6.58919 7.425 6.25797C7.425 5.92675 7.7274 5.65793 8.1 5.65793H9.45C9.8226 5.65793 10.125 5.92675 10.125 6.25797C10.125 6.58919 9.8226 6.858 9.45 6.858ZM9.45 4.45786H8.1C7.7274 4.45786 7.425 4.18905 7.425 3.85783C7.425 3.52661 7.7274 3.25779 8.1 3.25779H9.45C9.8226 3.25779 10.125 3.52661 10.125 3.85783C10.125 4.18905 9.8226 4.45786 9.45 4.45786Z" fill="#7D7D7D"/>
<path d="M20.3582 8.53174L13.9502 7.33887V19.0588H20.0252C20.8937 19.0588 21.6002 18.4307 21.6002 17.6587V9.89982C21.6002 9.23898 21.0935 8.67655 20.3582 8.53174ZM18.2252 16.6586H16.8752C16.5026 16.6586 16.2002 16.3898 16.2002 16.0586C16.2002 15.7274 16.5026 15.4585 16.8752 15.4585H18.2252C18.5978 15.4585 18.9002 15.7274 18.9002 16.0586C18.9002 16.3898 18.5978 16.6586 18.2252 16.6586ZM18.2252 14.2585H16.8752C16.5026 14.2585 16.2002 13.9897 16.2002 13.6584C16.2002 13.3272 16.5026 13.0584 16.8752 13.0584H18.2252C18.5978 13.0584 18.9002 13.3272 18.9002 13.6584C18.9002 13.9897 18.5978 14.2585 18.2252 14.2585ZM18.2252 11.8583H16.8752C16.5026 11.8583 16.2002 11.5895 16.2002 11.2583C16.2002 10.9271 16.5026 10.6583 16.8752 10.6583H18.2252C18.5978 10.6583 18.9002 10.9271 18.9002 11.2583C18.9002 11.5895 18.5978 11.8583 18.2252 11.8583Z" fill="#7D7D7D"/>
</svg>
