<svg width="22" height="22" viewBox="0 0 22 22" fill="none" xmlns="http://www.w3.org/2000/svg">
<path d="M6.39084 1.07644V18.7L0.876227 21.0257C0.461376 21.2014 0 20.8795 0 20.3999V4.22802C0 3.95229 0.158535 3.70486 0.401941 3.60221L6.39084 1.07644ZM7.66901 1.04733L14.1451 3.2932V12.1165C13.7993 12.0845 13.4661 11.9949 13.1565 11.8494C12.3839 11.4877 11.8651 12.7183 12.6372 13.0812C13.231 13.3597 13.8832 13.4747 14.1451 13.4522V20.8853L7.66901 18.6391V8.92761C7.83589 8.93987 8.00487 8.94225 8.16954 8.97442C9.00503 9.1396 9.2276 7.80888 8.4017 7.64913C8.15901 7.60224 7.91326 7.58301 7.66901 7.57888V1.04733ZM20.9378 0.906903C21.3428 0.73036 21.8141 1.04656 21.8141 1.53266V17.7045C21.8141 17.9803 21.6555 18.2277 21.4121 18.3303L15.4232 20.8559V3.23282L20.9378 0.906903ZM4.00429 13.2358C4.27023 12.3914 3.06189 11.9667 2.79101 12.8094L2.5888 13.4484C2.32192 14.2957 3.53149 14.7246 3.80208 13.8748L4.00429 13.2358ZM17.8772 11.7066C18.3951 10.9939 17.3673 10.1864 16.8637 10.8867C16.6552 11.1729 16.4043 11.417 16.116 11.6131C15.4138 12.0911 16.0926 13.2331 16.81 12.7449C17.2207 12.4653 17.5801 12.1158 17.8772 11.7066ZM10.9709 9.14881C10.4281 8.47484 9.44728 9.34332 9.9997 10.024C10.1882 10.2563 10.3455 10.5188 10.4728 10.8123C10.9611 11.8711 12.1125 11.2856 11.6324 10.2451C11.4589 9.845 11.2367 9.47651 10.9709 9.14881ZM5.34858 9.91998C5.92516 9.2745 5.00032 8.34691 4.41743 8.99612C4.08788 9.36596 3.81827 9.79433 3.61606 10.2694C3.27194 11.085 4.43384 11.6361 4.7844 10.8195C4.9267 10.482 5.11642 10.1792 5.34858 9.91998ZM19.2165 8.50786C19.5154 7.67272 18.3158 7.20131 18.0208 8.03407L17.7961 8.66513C17.4956 9.50463 18.6945 9.97573 18.9919 9.13892L19.2165 8.50786Z" fill="#424242"/>
</svg>
