<svg width="51" height="51" viewBox="0 0 51 51" fill="none" xmlns="http://www.w3.org/2000/svg">
<path d="M25.5 1C11.9899 1 1 11.9909 1 25.5C1 39.0091 11.9899 50 25.5 50C39.0101 50 50 39.0091 50 25.5C50 11.9909 39.0101 1 25.5 1ZM25.5 47.9584C13.1164 47.9584 3.04163 37.8836 3.04163 25.5C3.04163 13.1164 13.1164 3.04163 25.5 3.04163C37.8836 3.04163 47.9584 13.1164 47.9584 25.5C47.9584 37.8836 37.8836 47.9584 25.5 47.9584Z" fill="#2BB0D3" stroke="#2BB0D3"/>
<path d="M37.6492 24.2071L19.9801 13.4407C19.5931 13.2012 19.0927 13.1883 18.6934 13.3962C18.2866 13.6065 18.0352 14.0085 18.0352 14.4465V35.9795C18.0352 36.4175 18.2866 36.8195 18.6934 37.0298C18.8807 37.1268 19.0902 37.1758 19.2973 37.1758C19.5339 37.1758 19.773 37.1126 19.9801 36.9853L37.6492 26.2189C38.0091 25.9993 38.2285 25.6196 38.2285 25.213C38.2285 24.8065 38.0091 24.4268 37.6492 24.2071ZM20.5593 33.7878V16.6382L34.6321 25.213L20.5593 33.7878Z" fill="#2BB0D3"/>
</svg>
