<svg width="19" height="23" viewBox="0 0 19 23" fill="none" xmlns="http://www.w3.org/2000/svg">
<path d="M18.2913 3.80947C18.2552 3.80947 18.219 3.82865 18.183 3.83807C18.1378 3.82865 18.1016 3.80947 18.0655 3.80947H17.1621V0.952323C17.1621 0.428641 16.7558 0 16.2589 0H2.70982C1.37294 0 0.261985 1.02853 0.0451527 2.38089C0.018028 2.4571 0 2.53331 0 2.61911V20.238C0 21.6858 1.11095 22.8571 2.48406 22.8571H18.2913C18.6616 22.8571 18.9688 22.5333 18.9688 22.1429V4.52375C18.9688 4.1333 18.6616 3.80947 18.2913 3.80947ZM9.48438 19.5238C6.25058 19.5238 3.61304 16.7428 3.61304 13.3334C3.61304 9.92379 6.25058 7.14286 9.48438 7.14286C12.7182 7.14286 15.3557 9.92379 15.3557 13.3334C15.3557 16.7428 12.7182 19.5238 9.48438 19.5238ZM15.3557 3.80947H2.70982C2.21298 3.80947 1.8066 3.381 1.8066 2.85714C1.8066 2.33329 2.21298 1.90482 2.70982 1.90482H15.3557V3.80947Z" fill="#424242"/>
<path d="M10.8392 15.714C10.608 15.714 10.3767 15.6207 10.2006 15.435L8.84569 14.0064C8.67583 13.8283 8.58105 13.5863 8.58105 13.3331V10.4759C8.58105 9.94929 8.98561 9.52344 9.48427 9.52344C9.98294 9.52344 10.3875 9.94929 10.3875 10.4759V12.9388L11.4778 14.0883C11.8311 14.4607 11.8311 15.0625 11.4778 15.435C11.3016 15.6207 11.0704 15.714 10.8392 15.714Z" fill="#424242"/>
</svg>
