<svg width="23" height="24" viewBox="0 0 23 24" fill="none" xmlns="http://www.w3.org/2000/svg">
<g clip-path="url(#clip0)">
<path d="M14.3752 16.0535C14.3752 16.276 14.2937 16.4687 14.1313 16.631C13.9687 16.7938 13.7761 16.875 13.5536 16.875H9.44651C9.22389 16.875 9.03144 16.7938 8.86884 16.631C8.70628 16.4687 8.625 16.276 8.625 16.0535V14H0V20.1608C0 20.7254 0.200992 21.2087 0.603202 21.6109C1.00532 22.013 1.48885 22.2141 2.05362 22.2141H20.9465C21.5112 22.2141 21.9947 22.013 22.3968 21.6109C22.7991 21.2087 23 20.7254 23 20.1608V14H14.3752V16.0535Z" fill="#424242"/>
<path d="M13.143 14H9.85693V15.6429H13.143V14Z" fill="#424242"/>
<path d="M22.3968 6.38893C21.9947 5.98672 21.5111 5.78573 20.9465 5.78573H16.4285V3.73207C16.4285 3.38979 16.3088 3.09893 16.0692 2.85932C15.8298 2.61985 15.5387 2.5 15.1965 2.5H7.80364C7.46145 2.5 7.17055 2.61985 6.93089 2.85932C6.69124 3.0988 6.57153 3.38974 6.57153 3.73207V5.78573H2.05362C1.4889 5.78573 1.00537 5.98672 0.603202 6.38893C0.200993 6.7911 0 7.27436 0 7.83912V12.7678H23V7.83912C23 7.27436 22.7991 6.7911 22.3968 6.38893ZM14.7858 5.78573H8.21435V4.14278H14.7858V5.78573Z" fill="#424242"/>
</g>
<defs>
<clipPath id="clip0">
<rect width="23" height="23" fill="white" transform="translate(0 0.857422)"/>
</clipPath>
</defs>
</svg>
